<?xml version="1.0" standalone="no"?>
<!DOCTYPE svg PUBLIC "-//W3C//DTD SVG 20010904//EN"
 "http://www.w3.org/TR/2001/REC-SVG-20010904/DTD/svg10.dtd">
<svg version="1.0" xmlns="http://www.w3.org/2000/svg"
 width="260.000000pt" height="260.000000pt" viewBox="0 0 260.000000 260.000000"
 preserveAspectRatio="xMidYMid meet">
<metadata>
Created by potrace 1.11, written by Peter Selinger 2001-2013
</metadata>
<g transform="translate(0.000000,260.000000) scale(0.100000,-0.100000)"
fill="#000000" stroke="none">
<path d="M240 2334 c118 -121 264 -274 323 -341 117 -131 266 -313 267 -325 0
-5 -8 -8 -18 -8 -34 0 -425 -101 -454 -117 -4 -2 59 -57 140 -122 81 -65 212
-176 292 -246 223 -196 646 -627 830 -844 91 -107 177 -208 192 -225 l28 -31
-26 70 c-41 113 -95 247 -115 287 -27 52 -24 58 21 58 52 0 58 15 67 166 4 71
10 114 17 115 17 2 -123 28 -188 36 -54 5 -59 4 -53 -11 13 -34 57 -190 54
-192 -2 -2 -25 34 -52 79 -68 115 -230 358 -342 514 -52 72 -95 135 -95 139 1
12 88 40 224 70 68 15 124 29 126 30 17 12 -178 200 -405 389 -240 200 -604
464 -853 617 -215 133 -215 131 20 -108z"/>
<path d="M1441 2395 c-178 -40 -306 -104 -449 -224 -63 -52 -126 -129 -99
-118 37 14 202 27 261 21 l60 -7 -53 -14 c-57 -14 -181 -61 -194 -73 -4 -4 16
-28 46 -53 l54 -46 18 39 c31 70 147 161 172 136 3 -3 -1 -14 -10 -24 -23 -25
-55 -100 -68 -161 -19 -92 18 -103 155 -46 47 19 101 35 121 35 48 0 85 36 85
83 0 52 -28 133 -57 168 l-27 32 32 -17 c18 -9 40 -32 49 -51 14 -30 23 -36
72 -45 143 -29 298 -86 375 -140 l45 -30 20 26 c11 14 23 40 26 58 6 31 -15
105 -38 135 -11 14 -10 15 7 1 25 -20 66 -108 66 -143 0 -32 -13 -62 -42 -93
-19 -21 -19 -22 16 -80 62 -103 88 -180 91 -269 2 -44 1 -64 -2 -45 -6 46 -18
57 -33 30 -16 -30 -8 -114 13 -135 12 -12 16 -32 15 -73 -1 -51 12 -98 32
-112 4 -3 16 -33 27 -67 l21 -61 -29 -12 c-23 -10 -41 -9 -95 6 -64 17 -67 17
-80 -1 -18 -25 -2 -51 41 -70 55 -22 46 -52 -25 -84 -60 -27 -97 -26 -154 4
-42 22 -45 23 -36 6 13 -25 59 -58 92 -66 15 -4 51 0 84 10 31 9 65 14 75 12
10 -3 26 1 36 9 17 13 17 13 1 14 -10 0 -18 3 -18 6 0 16 28 54 68 93 43 41
44 42 38 15 -12 -47 -93 -162 -136 -193 -23 -17 -58 -35 -77 -42 -44 -14 -139
-7 -180 14 l-30 16 13 -57 c8 -31 14 -86 14 -121 l0 -64 34 6 c60 10 188 69
276 128 290 194 449 529 419 880 -34 397 -316 733 -704 839 -104 29 -338 37
-434 15z"/>
<path d="M1790 1447 c-95 -33 -118 -290 -31 -337 32 -16 66 -12 88 13 41 46
83 116 95 161 29 108 -54 197 -152 163z m95 -131 c0 -46 -24 -68 -52 -50 -41
25 -21 97 25 92 24 -3 27 -7 27 -42z"/>
</g>
</svg>
