<?xml version="1.0" encoding="UTF-8" standalone="no"?>
<!-- Created with Inkscape (http://www.inkscape.org/) -->

<svg
   width="1000"
   height="200"
   viewBox="0 0 264.58333 52.916666"
   version="1.1"
   id="svg5"
   inkscape:version="1.2.1 (9c6d41e410, 2022-07-14)"
   sodipodi:docname="Logo e2n Originalfarben.svg"
   inkscape:export-filename="..\Logo e2n Originalfarben.png"
   inkscape:export-xdpi="300"
   inkscape:export-ydpi="300"
   xml:space="preserve"
   xmlns:inkscape="http://www.inkscape.org/namespaces/inkscape"
   xmlns:sodipodi="http://sodipodi.sourceforge.net/DTD/sodipodi-0.dtd"
   xmlns="http://www.w3.org/2000/svg"
   xmlns:svg="http://www.w3.org/2000/svg"><sodipodi:namedview
     id="namedview7"
     pagecolor="#ffffff"
     bordercolor="#999999"
     borderopacity="1"
     inkscape:showpageshadow="0"
     inkscape:pageopacity="0"
     inkscape:pagecheckerboard="true"
     inkscape:deskcolor="#d1d1d1"
     inkscape:document-units="mm"
     showgrid="false"
     showguides="true"
     inkscape:zoom="0.99702056"
     inkscape:cx="469.39854"
     inkscape:cy="148.44227"
     inkscape:window-width="1920"
     inkscape:window-height="1017"
     inkscape:window-x="-8"
     inkscape:window-y="-8"
     inkscape:window-maximized="1"
     inkscape:current-layer="layer1" /><defs
     id="defs2" /><g
     inkscape:label="Ebene 1"
     inkscape:groupmode="layer"
     id="layer1"><g
       id="g17389"
       style="stroke:#73aadd;stroke-opacity:1"><path
         id="path14360-6"
         style="fill:none;stroke:#73aadd;stroke-width:0.661458;stroke-linecap:round;stroke-linejoin:round;stroke-dasharray:none;stroke-opacity:1;paint-order:stroke fill markers"
         d="m 73.091141,6.614584 c 0,-3.470477 2.81338,-6.283855 6.28386,-6.283855 0.36655,-10e-7 0.73548,0.03199 1.10203,0.09547 0.36893,0.06348 0.73548,0.158453 1.10203,0.283491 0.36656,0.125038 0.73548,0.280126 1.10442,0.462921 0.36655,0.18278 0.73548,0.393273 1.10203,0.628265 0.36656,0.234993 0.73548,0.494479 1.10204,0.774529 0.36656,0.280051 0.73548,0.580653 1.10203,0.897261 0.36893,0.316593 0.73548,0.649193 1.10203,0.992721 0.36893,0.343531 0.73545,0.698001 1.10204,1.058019 0.36652,0.360052 0.73545,0.72557 1.10203,1.091137 0.36653,0.365703 0.73545,0.731256 1.10441,1.091212 0.36653,0.360098 0.73545,0.714553 1.10204,1.058056 0.36652,0.34352 0.73545,0.676165 1.10203,0.992744 0.36893,0.316588 0.73545,0.617207 1.102041,0.897273 0.36652,0.280061 0.73545,0.539436 1.10203,0.774504 0.36893,0.234936 0.73545,0.445458 1.10204,0.628305 0.36892,0.182733 0.73545,0.337773 1.10441,0.462889 0.36652,0.12502 0.73545,0.219974 1.10203,0.283434 0.36653,0.06341 0.73545,0.09548 1.10204,0.09548 3.470478,0 6.283848,-2.813378 6.283848,-6.283855"
         sodipodi:nodetypes="cccscsscccccccccccccc" /><path
         id="path14362-9"
         style="fill:none;stroke:#73aadd;stroke-width:0.661458;stroke-linecap:round;stroke-linejoin:round;stroke-dasharray:none;stroke-opacity:1;paint-order:stroke fill markers"
         d="m 73.091141,8.59896 c 0,-3.470477 2.81338,-6.283855 6.28386,-6.283855 0.36655,-1e-6 0.73548,0.03199 1.10203,0.09547 0.36893,0.06348 0.73548,0.158453 1.10203,0.283491 0.36656,0.125038 0.73548,0.280126 1.10442,0.462921 0.36655,0.18278 0.73548,0.393273 1.10203,0.628265 0.36656,0.234993 0.73548,0.494479 1.10204,0.774529 0.36656,0.280051 0.73548,0.580653 1.10203,0.897261 0.36893,0.316593 0.73548,0.649193 1.10203,0.992721 0.36893,0.343531 0.73545,0.698001 1.10204,1.058019 0.36652,0.360052 0.73545,0.72557 1.10203,1.091137 0.36653,0.365703 0.73545,0.731256 1.10441,1.091212 0.36653,0.360098 0.73545,0.714553 1.10204,1.058056 0.36652,0.34352 0.73545,0.676165 1.10203,0.992744 0.36893,0.316588 0.73545,0.617207 1.102041,0.897273 0.36652,0.280061 0.73545,0.539436 1.10203,0.774504 0.36893,0.234936 0.73545,0.445458 1.10204,0.628305 0.36892,0.182733 0.73545,0.337773 1.10441,0.462889 0.36652,0.12502 0.73545,0.219974 1.10203,0.283434 0.36653,0.06341 0.73545,0.09548 1.10204,0.09548 3.470478,0 6.283848,-2.813378 6.283848,-6.283855"
         sodipodi:nodetypes="cccscsscccccccccccccc" /><path
         id="path14364-4"
         style="fill:none;stroke:#73aadd;stroke-width:0.661458;stroke-linecap:round;stroke-linejoin:round;stroke-dasharray:none;stroke-opacity:1;paint-order:stroke fill markers"
         d="m 73.091141,10.583335 c 0,-3.470477 2.81338,-6.283855 6.28386,-6.283855 0.36655,-1e-6 0.73548,0.03199 1.10203,0.09547 0.36893,0.06348 0.73548,0.158453 1.10203,0.283491 0.36656,0.125038 0.73548,0.280126 1.10442,0.462921 0.36655,0.18278 0.73548,0.393273 1.10203,0.628265 0.36656,0.234993 0.73548,0.494479 1.10204,0.774529 0.36656,0.280051 0.73548,0.580653 1.10203,0.897261 0.36893,0.316593 0.73548,0.649193 1.10203,0.992721 0.36893,0.343531 0.73545,0.698001 1.10204,1.058019 0.36652,0.360052 0.73545,0.72557 1.10203,1.091137 0.36653,0.365703 0.73545,0.731256 1.10441,1.091212 0.36653,0.360098 0.73545,0.714553 1.10204,1.058056 0.36652,0.34352 0.73545,0.676165 1.10203,0.992744 0.36893,0.316588 0.73545,0.617207 1.102041,0.897273 0.36652,0.280061 0.73545,0.539436 1.10203,0.774504 0.36893,0.234936 0.73545,0.445458 1.10204,0.628305 0.36892,0.182733 0.73545,0.337773 1.10441,0.462889 0.36652,0.12502 0.73545,0.219974 1.10203,0.283434 0.36653,0.06341 0.73545,0.09548 1.10204,0.09548 3.470478,0 6.283848,-2.813378 6.283848,-6.283855"
         sodipodi:nodetypes="cccscsscccccccccccccc" /><path
         id="path14366-4"
         style="fill:none;stroke:#73aadd;stroke-width:0.661458;stroke-linecap:round;stroke-linejoin:round;stroke-dasharray:none;stroke-opacity:1;paint-order:stroke fill markers"
         d="m 73.091141,12.567711 c 0,-3.470477 2.81338,-6.283855 6.28386,-6.283855 0.36655,-1e-6 0.73548,0.03199 1.10203,0.09547 0.36893,0.06348 0.73548,0.158453 1.10203,0.283491 0.36656,0.125038 0.73548,0.280126 1.10442,0.462921 0.36655,0.18278 0.73548,0.393273 1.10203,0.628265 0.36656,0.234993 0.73548,0.494479 1.10204,0.774529 0.36656,0.280051 0.73548,0.580653 1.10203,0.897261 0.36893,0.316593 0.73548,0.649193 1.10203,0.992721 0.36893,0.343531 0.73545,0.698001 1.10204,1.058019 0.36652,0.360052 0.73545,0.72557 1.10203,1.091137 0.36653,0.365703 0.73545,0.731256 1.10441,1.091212 0.36653,0.360098 0.73545,0.714553 1.10204,1.058056 0.36652,0.34352 0.73545,0.676165 1.10203,0.992744 0.36893,0.316588 0.73545,0.617207 1.102041,0.897273 0.36652,0.280061 0.73545,0.539436 1.10203,0.774504 0.36893,0.234936 0.73545,0.445458 1.10204,0.628305 0.36892,0.182733 0.73545,0.337773 1.10441,0.462889 0.36652,0.12502 0.73545,0.219974 1.10203,0.283434 0.36653,0.06341 0.73545,0.09548 1.10204,0.09548 3.470478,0 6.283848,-2.813378 6.283848,-6.283855"
         sodipodi:nodetypes="cccscsscccccccccccccc" /><path
         id="path14368-1"
         style="fill:none;stroke:#73aadd;stroke-width:0.661458;stroke-linecap:round;stroke-linejoin:round;stroke-dasharray:none;stroke-opacity:1;paint-order:stroke fill markers"
         d="m 73.091141,14.552085 c 0,-3.470477 2.81338,-6.283855 6.28386,-6.283855 0.36655,-1e-6 0.73548,0.03199 1.10203,0.09547 0.36893,0.06348 0.73548,0.158453 1.10203,0.283491 0.36656,0.125038 0.73548,0.280126 1.10442,0.462921 0.36655,0.18278 0.73548,0.393273 1.10203,0.628265 0.36656,0.234993 0.73548,0.494479 1.10204,0.774529 0.36656,0.280051 0.73548,0.580653 1.10203,0.897261 0.36893,0.316593 0.73548,0.649193 1.10203,0.992721 0.36893,0.343531 0.73545,0.698001 1.10204,1.058019 0.36652,0.360052 0.73545,0.72557 1.10203,1.091137 0.36653,0.365703 0.73545,0.731256 1.10441,1.091212 0.36653,0.360098 0.73545,0.714553 1.10204,1.058056 0.36652,0.34352 0.73545,0.676165 1.10203,0.992744 0.36893,0.316588 0.73545,0.617207 1.102041,0.897273 0.36652,0.280061 0.73545,0.539436 1.10203,0.774504 0.36893,0.234936 0.73545,0.445458 1.10204,0.628305 0.36892,0.182733 0.73545,0.337773 1.10441,0.462889 0.36652,0.12502 0.73545,0.219974 1.10203,0.283434 0.36653,0.06341 0.73545,0.09548 1.10204,0.09548 3.470478,0 6.283848,-2.813378 6.283848,-6.283855"
         sodipodi:nodetypes="cccscsscccccccccccccc" /><path
         id="path14370-5"
         style="fill:none;stroke:#73aadd;stroke-width:0.661458;stroke-linecap:round;stroke-linejoin:round;stroke-dasharray:none;stroke-opacity:1;paint-order:stroke fill markers"
         d="m 73.091141,16.536461 c 0,-3.470477 2.81338,-6.283855 6.28386,-6.283855 0.36655,-10e-7 0.73548,0.03199 1.10203,0.09547 0.36893,0.06348 0.73548,0.158453 1.10203,0.283491 0.36656,0.125038 0.73548,0.280126 1.10442,0.462921 0.36655,0.18278 0.73548,0.393273 1.10203,0.628265 0.36656,0.234993 0.73548,0.494479 1.10204,0.774529 0.36656,0.280051 0.73548,0.580653 1.10203,0.897261 0.36893,0.316593 0.73548,0.649193 1.10203,0.992721 0.36893,0.343531 0.73545,0.698001 1.10204,1.058019 0.36652,0.360052 0.73545,0.72557 1.10203,1.091137 0.36653,0.365703 0.73545,0.731256 1.10441,1.091212 0.36653,0.360098 0.73545,0.714553 1.10204,1.058056 0.36652,0.34352 0.73545,0.676165 1.10203,0.992744 0.36893,0.316588 0.73545,0.617207 1.102041,0.897273 0.36652,0.280061 0.73545,0.539436 1.10203,0.774504 0.36893,0.234936 0.73545,0.445458 1.10204,0.628305 0.36892,0.182733 0.73545,0.337773 1.10441,0.462889 0.36652,0.12502 0.73545,0.219974 1.10203,0.283434 0.36653,0.06341 0.73545,0.09548 1.10204,0.09548 3.470478,0 6.283848,-2.813378 6.283848,-6.283855"
         sodipodi:nodetypes="cccscsscccccccccccccc" /><path
         id="path14372-5"
         style="fill:none;stroke:#73aadd;stroke-width:0.661458;stroke-linecap:round;stroke-linejoin:round;stroke-dasharray:none;stroke-opacity:1;paint-order:stroke fill markers"
         d="m 73.091141,18.520835 c 0,-3.470477 2.81338,-6.283855 6.28386,-6.283855 0.36655,-1e-6 0.73548,0.03199 1.10203,0.09547 0.36893,0.06348 0.73548,0.158453 1.10203,0.283491 0.36656,0.125038 0.73548,0.280126 1.10442,0.462921 0.36655,0.18278 0.73548,0.393273 1.10203,0.628265 0.36656,0.234993 0.73548,0.494479 1.10204,0.774529 0.36656,0.280051 0.73548,0.580653 1.10203,0.897261 0.36893,0.316593 0.73548,0.649193 1.10203,0.992721 0.36893,0.343531 0.73545,0.698001 1.10204,1.058019 0.36652,0.360052 0.73545,0.72557 1.10203,1.091137 0.36653,0.365703 0.73545,0.731256 1.10441,1.091212 0.36653,0.360098 0.73545,0.714553 1.10204,1.058056 0.36652,0.34352 0.73545,0.676165 1.10203,0.992744 0.36893,0.316588 0.73545,0.617207 1.102041,0.897273 0.36652,0.280061 0.73545,0.539436 1.10203,0.774504 0.36893,0.234936 0.73545,0.445458 1.10204,0.628305 0.36892,0.182733 0.73545,0.337773 1.10441,0.462889 0.36652,0.12502 0.73545,0.219974 1.10203,0.283434 0.36653,0.06341 0.73545,0.09548 1.10204,0.09548 3.470478,0 6.283848,-2.813378 6.283848,-6.283855"
         sodipodi:nodetypes="cccscsscccccccccccccc" /><path
         id="path14374-9"
         style="fill:none;stroke:#73aadd;stroke-width:0.661458;stroke-linecap:round;stroke-linejoin:round;stroke-dasharray:none;stroke-opacity:1;paint-order:stroke fill markers"
         d="m 73.091141,20.505211 c 0,-3.470477 2.81338,-6.283855 6.28386,-6.283855 0.36655,-10e-7 0.73548,0.03199 1.10203,0.09547 0.36893,0.06348 0.73548,0.158453 1.10203,0.283491 0.36656,0.125038 0.73548,0.280126 1.10442,0.462921 0.36655,0.18278 0.73548,0.393273 1.10203,0.628265 0.36656,0.234993 0.73548,0.494479 1.10204,0.774529 0.36656,0.280051 0.73548,0.580653 1.10203,0.897261 0.36893,0.316593 0.73548,0.649193 1.10203,0.992721 0.36893,0.343531 0.73545,0.698001 1.10204,1.058019 0.36652,0.360052 0.73545,0.72557 1.10203,1.091137 0.36653,0.365703 0.73545,0.731256 1.10441,1.091212 0.36653,0.360098 0.73545,0.714553 1.10204,1.058056 0.36652,0.34352 0.73545,0.676165 1.10203,0.992744 0.36893,0.316588 0.73545,0.617207 1.102041,0.897273 0.36652,0.280061 0.73545,0.539436 1.10203,0.774504 0.36893,0.234936 0.73545,0.445458 1.10204,0.628305 0.36892,0.182733 0.73545,0.337773 1.10441,0.462889 0.36652,0.12502 0.73545,0.219974 1.10203,0.283434 0.36653,0.06341 0.73545,0.09548 1.10204,0.09548 3.470478,0 6.283848,-2.813378 6.283848,-6.283855"
         sodipodi:nodetypes="cccscsscccccccccccccc" /></g><g
       id="g17401"
       style="stroke:#b3c346;stroke-opacity:1"><path
         id="path14378-5"
         style="fill:none;stroke:#b3c346;stroke-width:0.661458;stroke-linecap:round;stroke-linejoin:round;stroke-dasharray:none;stroke-opacity:1;paint-order:stroke fill markers"
         d="m 73.091141,6.614585 c 0,3.470477 2.81338,6.283855 6.28386,6.283855 0.36655,10e-7 0.73548,-0.03199 1.10203,-0.09547 0.36893,-0.06348 0.73548,-0.158453 1.10203,-0.283491 0.36656,-0.125038 0.73548,-0.280126 1.10442,-0.462921 0.36655,-0.18278 0.73548,-0.393273 1.10203,-0.628265 0.36656,-0.234993 0.73548,-0.494479 1.10204,-0.774529 0.36656,-0.280051 0.73548,-0.580653 1.10203,-0.897261 0.36893,-0.316593 0.73548,-0.649193 1.10203,-0.992721 0.36893,-0.343531 0.73545,-0.698001 1.10204,-1.058019 0.36652,-0.360052 0.73545,-0.72557 1.10203,-1.091137 0.36653,-0.365703 0.73545,-0.731256 1.10441,-1.091212 0.36653,-0.360098 0.73545,-0.714553 1.10204,-1.058056 0.36652,-0.34352 0.73545,-0.676165 1.10203,-0.992744 0.36893,-0.316588 0.73545,-0.617207 1.102041,-0.897273 0.36652,-0.280061 0.73545,-0.539436 1.10203,-0.774504 0.36893,-0.234936 0.73545,-0.445458 1.10204,-0.628305 0.36892,-0.182733 0.73545,-0.337773 1.10441,-0.462889 0.36652,-0.12502 0.73545,-0.219974 1.10203,-0.283434 0.36653,-0.06341 0.73545,-0.09548 1.10204,-0.09548 3.470478,0 6.283848,2.813378 6.283848,6.283855"
         sodipodi:nodetypes="cccscsscccccccccccccc" /><path
         id="path14380-3"
         style="fill:none;stroke:#b3c346;stroke-width:0.661458;stroke-linecap:round;stroke-linejoin:round;stroke-dasharray:none;stroke-opacity:1;paint-order:stroke fill markers"
         d="m 73.091141,8.598961 c 0,3.470477 2.81338,6.283855 6.28386,6.283855 0.36655,10e-7 0.73548,-0.03199 1.10203,-0.09547 0.36893,-0.06348 0.73548,-0.158453 1.10203,-0.283491 0.36656,-0.125038 0.73548,-0.280126 1.10442,-0.462921 0.36655,-0.18278 0.73548,-0.393273 1.10203,-0.628265 0.36656,-0.234993 0.73548,-0.494479 1.10204,-0.774529 0.36656,-0.280051 0.73548,-0.580653 1.10203,-0.897261 0.36893,-0.316593 0.73548,-0.649193 1.10203,-0.992721 0.36893,-0.343531 0.73545,-0.698001 1.10204,-1.058019 0.36652,-0.360052 0.73545,-0.72557 1.10203,-1.091137 0.36653,-0.365703 0.73545,-0.731256 1.10441,-1.091212 0.36653,-0.360098 0.73545,-0.714553 1.10204,-1.058056 0.36652,-0.34352 0.73545,-0.676165 1.10203,-0.992744 0.36893,-0.316588 0.73545,-0.617207 1.102041,-0.897273 0.36652,-0.280061 0.73545,-0.539436 1.10203,-0.774504 0.36893,-0.234936 0.73545,-0.445458 1.10204,-0.628305 0.36892,-0.182733 0.73545,-0.337773 1.10441,-0.462889 0.36652,-0.12502 0.73545,-0.219974 1.10203,-0.283434 0.36653,-0.06341 0.73545,-0.09548 1.10204,-0.09548 3.470478,0 6.283848,2.813378 6.283848,6.283855"
         sodipodi:nodetypes="cccscsscccccccccccccc" /><path
         id="path14382-9"
         style="fill:none;stroke:#b3c346;stroke-width:0.661458;stroke-linecap:round;stroke-linejoin:round;stroke-dasharray:none;stroke-opacity:1;paint-order:stroke fill markers"
         d="m 73.091141,10.583336 c 0,3.470477 2.81338,6.283855 6.28386,6.283855 0.36655,1e-6 0.73548,-0.03199 1.10203,-0.09547 0.36893,-0.06348 0.73548,-0.158453 1.10203,-0.283491 0.36656,-0.125038 0.73548,-0.280126 1.10442,-0.462921 0.36655,-0.18278 0.73548,-0.393273 1.10203,-0.628265 0.36656,-0.234993 0.73548,-0.494479 1.10204,-0.774529 0.36656,-0.280051 0.73548,-0.580653 1.10203,-0.897261 0.36893,-0.316593 0.73548,-0.649193 1.10203,-0.992721 0.36893,-0.343531 0.73545,-0.698001 1.10204,-1.058019 0.36652,-0.360052 0.73545,-0.72557 1.10203,-1.091137 0.36653,-0.365703 0.73545,-0.731256 1.10441,-1.091212 0.36653,-0.360098 0.73545,-0.714553 1.10204,-1.058056 0.36652,-0.34352 0.73545,-0.676165 1.10203,-0.992744 0.36893,-0.316588 0.73545,-0.617207 1.102041,-0.897273 0.36652,-0.280061 0.73545,-0.539436 1.10203,-0.774504 0.36893,-0.234936 0.73545,-0.445458 1.10204,-0.628305 0.36892,-0.182733 0.73545,-0.337773 1.10441,-0.462889 0.36652,-0.12502 0.73545,-0.219974 1.10203,-0.283434 0.36653,-0.06341 0.73545,-0.09548 1.10204,-0.09548 3.470478,0 6.283848,2.813378 6.283848,6.283855"
         sodipodi:nodetypes="cccscsscccccccccccccc" /><path
         id="path14384-8"
         style="fill:none;stroke:#b3c346;stroke-width:0.661458;stroke-linecap:round;stroke-linejoin:round;stroke-dasharray:none;stroke-opacity:1;paint-order:stroke fill markers"
         d="m 73.091141,12.567712 c 0,3.470477 2.81338,6.283855 6.28386,6.283855 0.36655,1e-6 0.73548,-0.03199 1.10203,-0.09547 0.36893,-0.06348 0.73548,-0.158453 1.10203,-0.283491 0.36656,-0.125038 0.73548,-0.280126 1.10442,-0.462921 0.36655,-0.18278 0.73548,-0.393273 1.10203,-0.628265 0.36656,-0.234993 0.73548,-0.494479 1.10204,-0.774529 0.36656,-0.280051 0.73548,-0.580653 1.10203,-0.897261 0.36893,-0.316593 0.73548,-0.649193 1.10203,-0.992721 0.36893,-0.343531 0.73545,-0.698001 1.10204,-1.058019 0.36652,-0.360052 0.73545,-0.72557 1.10203,-1.091137 0.36653,-0.365703 0.73545,-0.731256 1.10441,-1.091212 0.36653,-0.360098 0.73545,-0.714553 1.10204,-1.058056 0.36652,-0.34352 0.73545,-0.676165 1.10203,-0.992744 0.36893,-0.316588 0.73545,-0.617207 1.102041,-0.897273 0.36652,-0.280061 0.73545,-0.539436 1.10203,-0.774504 0.36893,-0.234936 0.73545,-0.445458 1.10204,-0.628305 0.36892,-0.182733 0.73545,-0.337773 1.10441,-0.462889 0.36652,-0.12502 0.73545,-0.219974 1.10203,-0.283434 0.36653,-0.06341 0.73545,-0.09548 1.10204,-0.09548 3.470478,0 6.283848,2.813378 6.283848,6.283855"
         sodipodi:nodetypes="cccscsscccccccccccccc" /><path
         id="path14386-4"
         style="fill:none;stroke:#b3c346;stroke-width:0.661458;stroke-linecap:round;stroke-linejoin:round;stroke-dasharray:none;stroke-opacity:1;paint-order:stroke fill markers"
         d="m 73.091141,14.552086 c 0,3.470477 2.81338,6.283855 6.28386,6.283855 0.36655,1e-6 0.73548,-0.03199 1.10203,-0.09547 0.36893,-0.06348 0.73548,-0.158453 1.10203,-0.283491 0.36656,-0.125038 0.73548,-0.280126 1.10442,-0.462921 0.36655,-0.18278 0.73548,-0.393273 1.10203,-0.628265 0.36656,-0.234993 0.73548,-0.494479 1.10204,-0.774529 0.36656,-0.280051 0.73548,-0.580653 1.10203,-0.897261 0.36893,-0.316593 0.73548,-0.649193 1.10203,-0.992721 0.36893,-0.343531 0.73545,-0.698001 1.10204,-1.058019 0.36652,-0.360052 0.73545,-0.72557 1.10203,-1.091137 0.36653,-0.365703 0.73545,-0.731256 1.10441,-1.091212 0.36653,-0.360098 0.73545,-0.714553 1.10204,-1.058056 0.36652,-0.34352 0.73545,-0.676165 1.10203,-0.992744 0.36893,-0.316588 0.73545,-0.617207 1.102041,-0.897273 0.36652,-0.280061 0.73545,-0.539436 1.10203,-0.774504 0.36893,-0.234936 0.73545,-0.445458 1.10204,-0.628305 0.36892,-0.182733 0.73545,-0.337773 1.10441,-0.462889 0.36652,-0.12502 0.73545,-0.219974 1.10203,-0.283434 0.36653,-0.06341 0.73545,-0.09548 1.10204,-0.09548 3.470478,0 6.283848,2.813378 6.283848,6.283855"
         sodipodi:nodetypes="cccscsscccccccccccccc" /><path
         id="path14388-3"
         style="fill:none;stroke:#b3c346;stroke-width:0.661458;stroke-linecap:round;stroke-linejoin:round;stroke-dasharray:none;stroke-opacity:1;paint-order:stroke fill markers"
         d="m 73.091141,16.536462 c 0,3.470477 2.81338,6.283855 6.28386,6.283855 0.36655,1e-6 0.73548,-0.03199 1.10203,-0.09547 0.36893,-0.06348 0.73548,-0.158453 1.10203,-0.283491 0.36656,-0.125038 0.73548,-0.280126 1.10442,-0.462921 0.36655,-0.18278 0.73548,-0.393273 1.10203,-0.628265 0.36656,-0.234993 0.73548,-0.494479 1.10204,-0.774529 0.36656,-0.280051 0.73548,-0.580653 1.10203,-0.897261 0.36893,-0.316593 0.73548,-0.649193 1.10203,-0.992721 0.36893,-0.343531 0.73545,-0.698001 1.10204,-1.058019 0.36652,-0.360052 0.73545,-0.72557 1.10203,-1.091137 0.36653,-0.365703 0.73545,-0.731256 1.10441,-1.091212 0.36653,-0.360098 0.73545,-0.714553 1.10204,-1.058056 0.36652,-0.34352 0.73545,-0.676165 1.10203,-0.992744 0.36893,-0.316588 0.73545,-0.617207 1.102041,-0.897273 0.36652,-0.280061 0.73545,-0.539436 1.10203,-0.774504 0.36893,-0.234936 0.73545,-0.445458 1.10204,-0.628305 0.36892,-0.182733 0.73545,-0.337773 1.10441,-0.462889 0.36652,-0.12502 0.73545,-0.219974 1.10203,-0.283434 0.36653,-0.06341 0.73545,-0.09548 1.10204,-0.09548 3.470478,0 6.283848,2.813378 6.283848,6.283855"
         sodipodi:nodetypes="cccscsscccccccccccccc" /><path
         id="path14390-4"
         style="fill:none;stroke:#b3c346;stroke-width:0.661458;stroke-linecap:round;stroke-linejoin:round;stroke-dasharray:none;stroke-opacity:1;paint-order:stroke fill markers"
         d="m 73.091141,18.520836 c 0,3.470477 2.81338,6.283855 6.28386,6.283855 0.36655,1e-6 0.73548,-0.03199 1.10203,-0.09547 0.36893,-0.06348 0.73548,-0.158453 1.10203,-0.283491 0.36656,-0.125038 0.73548,-0.280126 1.10442,-0.462921 0.36655,-0.18278 0.73548,-0.393273 1.10203,-0.628265 0.36656,-0.234993 0.73548,-0.494479 1.10204,-0.774529 0.36656,-0.280051 0.73548,-0.580653 1.10203,-0.897261 0.36893,-0.316593 0.73548,-0.649193 1.10203,-0.992721 0.36893,-0.343531 0.73545,-0.698001 1.10204,-1.058019 0.36652,-0.360052 0.73545,-0.72557 1.10203,-1.091137 0.36653,-0.365703 0.73545,-0.731256 1.10441,-1.091212 0.36653,-0.360098 0.73545,-0.714553 1.10204,-1.058056 0.36652,-0.34352 0.73545,-0.676165 1.10203,-0.992744 0.36893,-0.316588 0.73545,-0.617207 1.102041,-0.897273 0.36652,-0.280061 0.73545,-0.539436 1.10203,-0.774504 0.36893,-0.234936 0.73545,-0.445458 1.10204,-0.628305 0.36892,-0.182733 0.73545,-0.337773 1.10441,-0.462889 0.36652,-0.12502 0.73545,-0.219974 1.10203,-0.283434 0.36653,-0.06341 0.73545,-0.09548 1.10204,-0.09548 3.470478,0 6.283848,2.813378 6.283848,6.283855"
         sodipodi:nodetypes="cccscsscccccccccccccc" /><path
         id="path14392-5"
         style="fill:none;stroke:#b3c346;stroke-width:0.661458;stroke-linecap:round;stroke-linejoin:round;stroke-dasharray:none;stroke-opacity:1;paint-order:stroke fill markers"
         d="m 73.091141,20.505212 c 0,3.470477 2.81338,6.283855 6.28386,6.283855 0.36655,1e-6 0.73548,-0.03199 1.10203,-0.09547 0.36893,-0.06348 0.73548,-0.158453 1.10203,-0.283491 0.36656,-0.125038 0.73548,-0.280126 1.10442,-0.462921 0.36655,-0.18278 0.73548,-0.393273 1.10203,-0.628265 0.36656,-0.234993 0.73548,-0.494479 1.10204,-0.774529 0.36656,-0.280051 0.73548,-0.580653 1.10203,-0.897261 0.36893,-0.316593 0.73548,-0.649193 1.10203,-0.992721 0.36893,-0.343531 0.73545,-0.698001 1.10204,-1.058019 0.36652,-0.360052 0.73545,-0.72557 1.10203,-1.091137 0.36653,-0.365703 0.73545,-0.731256 1.10441,-1.091212 0.36653,-0.360098 0.73545,-0.714553 1.10204,-1.058056 0.36652,-0.34352 0.73545,-0.676165 1.10203,-0.992744 0.36893,-0.316588 0.73545,-0.617207 1.102041,-0.897273 0.36652,-0.280061 0.73545,-0.539436 1.10203,-0.774504 0.36893,-0.234936 0.73545,-0.445458 1.10204,-0.628305 0.36892,-0.182733 0.73545,-0.337773 1.10441,-0.462889 0.36652,-0.12502 0.73545,-0.219974 1.10203,-0.283434 0.36653,-0.06341 0.73545,-0.09548 1.10204,-0.09548 3.470478,0 6.283848,2.813378 6.283848,6.283855"
         sodipodi:nodetypes="cccscsscccccccccccccc" /><path
         style="fill:#b1c800;fill-opacity:1;stroke:#b3c346;stroke-width:0.661458;stroke-linecap:round;stroke-linejoin:round;stroke-dasharray:none;stroke-opacity:1;paint-order:stroke fill markers"
         d="M 105.5026,6.614584 V 20.505212"
         id="path14394-3" /><path
         style="fill:#b1c800;fill-opacity:1;stroke:#b3c346;stroke-width:0.661458;stroke-linecap:round;stroke-linejoin:round;stroke-dasharray:none;stroke-opacity:1;paint-order:stroke fill markers"
         d="M 73.091141,6.614584 V 20.505212"
         id="path14396-4" /></g><g
       id="g17379"><path
         d="m 121.64831,24.522219 v -1.004986 h -3.36965 v 1.004986 l 0.76851,0.147792 c 0.17736,0.04434 0.20691,0.162571 0.20691,0.266025 v 6.754094 c 0,0.236468 -0.0296,0.413818 -0.31036,0.413818 -0.17735,0 -0.25125,-0.08868 -0.33992,-0.280805 l -3.93127,-8.30591 h -4.0495 v 1.004986 l 0.76852,0.147792 c 0.17735,0.04434 0.20691,0.162571 0.20691,0.266025 v 7.005341 c 0,0.103454 -0.0296,0.221688 -0.20691,0.266025 l -0.76852,0.147792 v 1.004986 h 3.35488 v -1.004986 l -0.75374,-0.147792 c -0.17735,-0.04434 -0.20691,-0.162571 -0.20691,-0.266025 V 25.05427 c 0,-0.251247 0.0296,-0.399039 0.31036,-0.399039 0.19213,0 0.25125,0.0739 0.33993,0.280805 l 3.96082,8.424144 h 3.04452 v -8.424144 c 0,-0.103454 0.0296,-0.221688 0.20691,-0.266025 z"
         style="font-weight:bold;font-size:14.7792px;line-height:1.1;font-family:Kontrapunkt;-inkscape-font-specification:'Kontrapunkt Bold';letter-spacing:-0.661458px;stroke-width:0.500001;stroke-linejoin:round;paint-order:stroke fill markers"
         id="path17108" /><path
         d="m 130.23864,33.36018 v -0.91631 l -0.6355,-0.133013 c -0.17735,-0.02956 -0.20691,-0.0739 -0.20691,-0.266026 V 28.55694 c 0,-0.93109 -0.26603,-1.463141 -0.84242,-1.773504 -0.51727,-0.280805 -1.30057,-0.384259 -2.34989,-0.384259 -1.8474,0 -3.17753,0.36948 -3.17753,0.36948 l 0.20691,1.10844 c 0,0 1.35969,-0.325143 2.74893,-0.325143 0.60595,0 1.04933,0.02956 1.35969,0.162572 0.4286,0.17735 0.59117,0.502492 0.59117,1.034544 v 0.295584 l -2.88195,0.02956 c -1.87695,0.02956 -2.43856,0.532051 -2.43856,2.172542 0,1.743946 0.6355,2.21688 2.82282,2.21688 0.48772,0 1.12322,-0.05912 1.12322,-0.05912 l 0.91631,-0.635505 c 0.11824,-0.0739 0.23647,-0.147792 0.38426,-0.147792 0.23647,0 0.28081,0.17735 0.29559,0.280805 l 0.0591,0.458155 z m -2.30555,-1.315349 c 0,0 -1.27101,0.266026 -2.3499,0.266026 -1.04932,0 -1.47792,-0.05912 -1.47792,-1.064103 0,-1.226673 0.53206,-1.09366 1.5666,-1.10844 l 2.26122,-0.04434 z"
         style="font-weight:bold;font-size:14.7792px;line-height:1.1;font-family:Kontrapunkt;-inkscape-font-specification:'Kontrapunkt Bold';letter-spacing:-0.661458px;stroke-width:0.500001;stroke-linejoin:round;paint-order:stroke fill markers"
         id="path17110" /><path
         d="m 136.86332,33.16805 -0.17735,-1.078881 c 0,0 -1.00498,0.206909 -2.08386,0.206909 -1.96564,0 -2.26122,-0.399039 -2.26122,-2.364672 0,-1.980413 0.29558,-2.335114 2.26122,-2.335114 1.07888,0 2.08386,0.19213 2.08386,0.19213 l 0.17735,-1.10844 c 0,0 -1.30057,-0.280805 -2.63069,-0.280805 -2.46813,0 -3.38444,0.694622 -3.38444,3.532229 0,2.837606 0.91631,3.532228 3.38444,3.532228 1.64049,0 2.63069,-0.295584 2.63069,-0.295584 z"
         style="font-weight:bold;font-size:14.7792px;line-height:1.1;font-family:Kontrapunkt;-inkscape-font-specification:'Kontrapunkt Bold';letter-spacing:-0.661458px;stroke-width:0.500001;stroke-linejoin:round;paint-order:stroke fill markers"
         id="path17112" /><path
         d="m 144.7738,29.029874 c 0,-2.083867 -0.57639,-2.630697 -2.71937,-2.630697 -0.3547,0 -0.7833,0.08867 -0.7833,0.08867 l -0.85719,0.605947 c -0.13301,0.08867 -0.19213,0.118234 -0.31036,0.118234 -0.19213,0 -0.26603,-0.103455 -0.26603,-0.325143 v -3.369657 h -2.32033 v 0.91631 l 0.65028,0.133013 c 0.16257,0.02956 0.20691,0.0739 0.20691,0.266026 v 7.212249 c 0,0.19213 -0.0443,0.236467 -0.20691,0.266026 l -0.65028,0.133013 v 0.91631 h 3.16274 v -0.91631 l -0.6355,-0.133013 c -0.17735,-0.02956 -0.20691,-0.0739 -0.20691,-0.266026 v -4.300747 c 0.33992,-0.05912 1.09366,-0.17735 1.81784,-0.17735 1.37447,0 1.65527,0.206908 1.65527,1.581374 v 2.896723 c 0,0.19213 -0.0443,0.236467 -0.20691,0.266026 l -0.65028,0.133013 v 0.91631 h 3.16275 v -0.91631 l -0.63551,-0.133013 c -0.17735,-0.02956 -0.20691,-0.0739 -0.20691,-0.266026 z"
         style="font-weight:bold;font-size:14.7792px;line-height:1.1;font-family:Kontrapunkt;-inkscape-font-specification:'Kontrapunkt Bold';letter-spacing:-0.661458px;stroke-width:0.500001;stroke-linejoin:round;paint-order:stroke fill markers"
         id="path17114" /><path
         d="m 153.36412,29.029874 c 0,-2.083867 -0.57639,-2.630697 -2.71938,-2.630697 -0.3547,0 -0.7833,0.08867 -0.7833,0.08867 l -0.85719,0.605947 c -0.13301,0.08867 -0.19213,0.118234 -0.31036,0.118234 -0.19213,0 -0.26603,-0.103455 -0.26603,-0.325143 v -3.369657 h -2.32033 v 0.91631 l 0.65028,0.133013 c 0.16257,0.02956 0.20691,0.0739 0.20691,0.266026 v 7.212249 c 0,0.19213 -0.0443,0.236467 -0.20691,0.266026 l -0.65028,0.133013 v 0.91631 h 3.16275 v -0.91631 l -0.63551,-0.133013 c -0.17735,-0.02956 -0.20691,-0.0739 -0.20691,-0.266026 v -4.300747 c 0.33992,-0.05912 1.09366,-0.17735 1.81784,-0.17735 1.37447,0 1.65527,0.206908 1.65527,1.581374 v 2.896723 c 0,0.19213 -0.0443,0.236467 -0.2069,0.266026 l -0.65029,0.133013 v 0.91631 h 3.16275 v -0.91631 l -0.63551,-0.133013 c -0.17735,-0.02956 -0.2069,-0.0739 -0.2069,-0.266026 z"
         style="font-weight:bold;font-size:14.7792px;line-height:1.1;font-family:Kontrapunkt;-inkscape-font-specification:'Kontrapunkt Bold';letter-spacing:-0.661458px;stroke-width:0.500001;stroke-linejoin:round;paint-order:stroke fill markers"
         id="path17116" /><path
         d="m 162.42736,33.36018 v -0.91631 l -0.6355,-0.133013 c -0.17735,-0.02956 -0.20691,-0.0739 -0.20691,-0.266026 V 28.55694 c 0,-0.93109 -0.26603,-1.463141 -0.84242,-1.773504 -0.51727,-0.280805 -1.30057,-0.384259 -2.34989,-0.384259 -1.8474,0 -3.17753,0.36948 -3.17753,0.36948 l 0.20691,1.10844 c 0,0 1.35969,-0.325143 2.74893,-0.325143 0.60595,0 1.04933,0.02956 1.35969,0.162572 0.4286,0.17735 0.59117,0.502492 0.59117,1.034544 v 0.295584 l -2.88195,0.02956 c -1.87695,0.02956 -2.43856,0.532051 -2.43856,2.172542 0,1.743946 0.6355,2.21688 2.82282,2.21688 0.48772,0 1.12322,-0.05912 1.12322,-0.05912 l 0.91631,-0.635505 c 0.11824,-0.0739 0.23647,-0.147792 0.38426,-0.147792 0.23647,0 0.28081,0.17735 0.29559,0.280805 l 0.0591,0.458155 z m -2.30555,-1.315349 c 0,0 -1.27101,0.266026 -2.3499,0.266026 -1.04932,0 -1.47792,-0.05912 -1.47792,-1.064103 0,-1.226673 0.53206,-1.09366 1.5666,-1.10844 l 2.26122,-0.04434 z"
         style="font-weight:bold;font-size:14.7792px;line-height:1.1;font-family:Kontrapunkt;-inkscape-font-specification:'Kontrapunkt Bold';letter-spacing:-0.661458px;stroke-width:0.500001;stroke-linejoin:round;paint-order:stroke fill markers"
         id="path17118" /><path
         d="m 166.03709,33.36018 v -0.91631 l -0.63551,-0.133013 c -0.17735,-0.02956 -0.20691,-0.0739 -0.20691,-0.266026 v -8.527598 h -2.32033 v 0.91631 l 0.65028,0.133013 c 0.16258,0.02956 0.20691,0.0739 0.20691,0.266026 v 7.212249 c 0,0.19213 -0.0443,0.236467 -0.20691,0.266026 l -0.65028,0.133013 v 0.91631 z"
         style="font-weight:bold;font-size:14.7792px;line-height:1.1;font-family:Kontrapunkt;-inkscape-font-specification:'Kontrapunkt Bold';letter-spacing:-0.661458px;stroke-width:0.500001;stroke-linejoin:round;paint-order:stroke fill markers"
         id="path17120" /><path
         d="m 170.99174,33.212388 -0.13302,-0.990206 c 0,0 -0.65028,0.118233 -0.97542,0.118233 -0.84242,0 -0.93109,-0.206909 -0.93109,-0.975427 v -3.768696 h 2.03953 v -1.10844 h -2.03953 v -1.832621 h -1.46314 v 1.832621 h -1.37447 v 1.10844 h 1.37447 V 31.1433 c 0,1.581374 0.22168,2.275997 2.02475,2.275997 0.78329,0 1.47792,-0.206909 1.47792,-0.206909 z"
         style="font-weight:bold;font-size:14.7792px;line-height:1.1;font-family:Kontrapunkt;-inkscape-font-specification:'Kontrapunkt Bold';letter-spacing:-0.661458px;stroke-width:0.500001;stroke-linejoin:round;paint-order:stroke fill markers"
         id="path17122" /><path
         d="m 174.0103,25.23162 v -1.714387 h -1.78829 v 1.714387 z m 0.84241,8.12856 v -0.91631 l -0.6355,-0.133013 c -0.17735,-0.02956 -0.20691,-0.0739 -0.20691,-0.266026 v -5.556979 h -2.32034 v 0.91631 l 0.65029,0.133013 c 0.16257,0.02956 0.20691,0.0739 0.20691,0.266026 v 4.24163 c 0,0.19213 -0.0443,0.236467 -0.20691,0.266026 l -0.65029,0.133013 v 0.91631 z"
         style="font-weight:bold;font-size:14.7792px;line-height:1.1;font-family:Kontrapunkt;-inkscape-font-specification:'Kontrapunkt Bold';letter-spacing:-0.661458px;stroke-width:0.500001;stroke-linejoin:round;paint-order:stroke fill markers"
         id="path17124" /><path
         d="m 177.20619,31.158079 c 0,0 0.51728,0.19213 1.62572,0.19213 2.49768,0 3.31054,-0.413818 3.31054,-2.290776 0,-0.103455 -0.0296,-0.354701 -0.0296,-0.354701 l -0.82764,-0.842414 c -0.0591,-0.05912 -0.13301,-0.118234 -0.13301,-0.221688 0,-0.147792 0.0887,-0.221688 0.25125,-0.221688 l 1.67005,-0.0739 v -0.916311 l -4.16774,-0.02956 c -2.68981,-0.02956 -3.22186,0.561609 -3.22186,2.482905 0,1.285791 0.22168,1.610933 0.79807,1.965634 0.0591,0.04434 0.1478,0.08868 0.1478,0.221688 0,0.08868 -0.0443,0.147792 -0.10346,0.206909 l -0.76852,0.798077 c 0,0.0739 -0.0148,0.17735 -0.0148,0.266025 0,1.271011 1.2119,1.211894 2.09865,1.211894 h 2.14298 c 0.22169,0 0.45816,0 0.66507,0.01478 0.50249,0.05912 0.66506,0.17735 0.66506,0.73896 0,0.458155 -0.17735,0.605947 -0.6355,0.694622 -0.39904,0.08868 -1.34491,0.118234 -1.83262,0.118234 -1.16756,0 -2.80805,-0.221688 -2.82283,-0.221688 l -0.11824,1.152777 c 0,0 1.37447,0.251247 2.95584,0.251247 3.28099,0 3.88693,-0.472935 3.88693,-2.009972 0,-1.640491 -0.59116,-1.965633 -2.49768,-1.965633 h -1.93608 c -1.10844,0 -1.18233,-0.103454 -1.18233,-0.591168 0,-0.280805 0.0739,-0.576389 0.0739,-0.576389 z m 3.44356,-2.290776 c 0,1.389245 -0.44338,1.463141 -1.74395,1.463141 -1.30057,0 -1.71439,-0.04434 -1.71439,-1.433582 0,-1.330128 0.36948,-1.463141 1.71439,-1.463141 0.65029,0 1.61093,0.02956 1.61093,0.02956 0.0887,0.413818 0.13302,0.975427 0.13302,1.404024 z"
         style="font-weight:bold;font-size:14.7792px;line-height:1.1;font-family:Kontrapunkt;-inkscape-font-specification:'Kontrapunkt Bold';letter-spacing:-0.661458px;stroke-width:0.500001;stroke-linejoin:round;paint-order:stroke fill markers"
         id="path17126" /><path
         d="m 190.20071,29.414134 c 0,-2.394231 -0.76852,-3.014957 -3.35488,-3.014957 -1.59615,0 -2.64548,0.251246 -3.11841,1.271011 -0.23647,0.532051 -0.36948,1.389245 -0.36948,2.261218 0,3.029736 1.33013,3.532228 3.66524,3.532228 1.58138,0 2.77849,-0.384259 2.77849,-0.384259 l -0.19213,-1.064102 c -0.82763,0.147792 -1.53703,0.280805 -2.43857,0.280805 -0.60594,0 -1.46314,0 -1.92129,-0.487714 -0.29559,-0.339922 -0.39904,-0.857194 -0.39904,-1.315349 v -0.310363 c 0,-0.19213 0.0887,-0.325142 0.2808,-0.325142 0.13302,0 0.19213,0.04434 0.29559,0.118233 l 0.6355,0.443376 c 0,0 0.5025,0.08868 1.55182,0.08868 1.10844,0 2.05431,-0.103454 2.54202,-0.118233 0.0296,-0.487714 0.0443,-0.724181 0.0443,-0.975427 z m -1.50748,-0.05912 c -0.7833,0.0739 -1.86218,0.04434 -1.86218,0.04434 0,0 -1.0641,0.04434 -1.96563,-0.08867 0.0887,-1.47792 0.13301,-1.788283 2.05431,-1.788283 1.40402,0 1.7735,0.17735 1.7735,1.832621 z"
         style="font-weight:bold;font-size:14.7792px;line-height:1.1;font-family:Kontrapunkt;-inkscape-font-specification:'Kontrapunkt Bold';letter-spacing:-0.661458px;stroke-width:0.500001;stroke-linejoin:round;paint-order:stroke fill markers"
         id="path17128" /><path
         d="m 200.49423,29.414134 c 0,-2.394231 -0.76852,-3.014957 -3.35488,-3.014957 -1.59615,0 -2.64548,0.251246 -3.11841,1.271011 -0.23647,0.532051 -0.36948,1.389245 -0.36948,2.261218 0,3.029736 1.33013,3.532228 3.66524,3.532228 1.58137,0 2.77849,-0.384259 2.77849,-0.384259 l -0.19213,-1.064102 c -0.82764,0.147792 -1.53704,0.280805 -2.43857,0.280805 -0.60595,0 -1.46314,0 -1.92129,-0.487714 -0.29559,-0.339922 -0.39904,-0.857194 -0.39904,-1.315349 v -0.310363 c 0,-0.19213 0.0887,-0.325142 0.2808,-0.325142 0.13302,0 0.19213,0.04434 0.29559,0.118233 l 0.6355,0.443376 c 0,0 0.50249,0.08868 1.55182,0.08868 1.10844,0 2.05431,-0.103454 2.54202,-0.118233 0.0296,-0.487714 0.0443,-0.724181 0.0443,-0.975427 z m -1.50748,-0.05912 c -0.7833,0.0739 -1.86218,0.04434 -1.86218,0.04434 0,0 -1.0641,0.04434 -1.96563,-0.08867 0.0887,-1.47792 0.13301,-1.788283 2.05431,-1.788283 1.40402,0 1.7735,0.17735 1.7735,1.832621 z"
         style="font-weight:bold;font-size:14.7792px;line-height:1.1;font-family:Kontrapunkt;-inkscape-font-specification:'Kontrapunkt Bold';letter-spacing:-0.661458px;stroke-width:0.500001;stroke-linejoin:round;paint-order:stroke fill markers"
         id="path17130" /><path
         d="m 204.31087,33.36018 v -0.91631 l -0.63551,-0.133013 c -0.17735,-0.02956 -0.20691,-0.0739 -0.20691,-0.266026 v -8.527598 h -2.32033 v 0.91631 l 0.65029,0.133013 c 0.16257,0.02956 0.2069,0.0739 0.2069,0.266026 v 7.212249 c 0,0.19213 -0.0443,0.236467 -0.2069,0.266026 l -0.65029,0.133013 v 0.91631 z"
         style="font-weight:bold;font-size:14.7792px;line-height:1.1;font-family:Kontrapunkt;-inkscape-font-specification:'Kontrapunkt Bold';letter-spacing:-0.661458px;stroke-width:0.500001;stroke-linejoin:round;paint-order:stroke fill markers"
         id="path17132" /><path
         d="m 211.88143,29.414134 c 0,-2.394231 -0.76851,-3.014957 -3.35487,-3.014957 -1.59616,0 -2.64548,0.251246 -3.11841,1.271011 -0.23647,0.532051 -0.36948,1.389245 -0.36948,2.261218 0,3.029736 1.33012,3.532228 3.66524,3.532228 1.58137,0 2.77849,-0.384259 2.77849,-0.384259 l -0.19213,-1.064102 c -0.82764,0.147792 -1.53704,0.280805 -2.43857,0.280805 -0.60595,0 -1.46314,0 -1.9213,-0.487714 -0.29558,-0.339922 -0.39904,-0.857194 -0.39904,-1.315349 v -0.310363 c 0,-0.19213 0.0887,-0.325142 0.28081,-0.325142 0.13301,0 0.19213,0.04434 0.29558,0.118233 l 0.63551,0.443376 c 0,0 0.50249,0.08868 1.55181,0.08868 1.10844,0 2.05431,-0.103454 2.54203,-0.118233 0.0296,-0.487714 0.0443,-0.724181 0.0443,-0.975427 z m -1.50747,-0.05912 c -0.7833,0.0739 -1.86218,0.04434 -1.86218,0.04434 0,0 -1.0641,0.04434 -1.96564,-0.08867 0.0887,-1.47792 0.13302,-1.788283 2.05431,-1.788283 1.40403,0 1.77351,0.17735 1.77351,1.832621 z"
         style="font-weight:bold;font-size:14.7792px;line-height:1.1;font-family:Kontrapunkt;-inkscape-font-specification:'Kontrapunkt Bold';letter-spacing:-0.661458px;stroke-width:0.500001;stroke-linejoin:round;paint-order:stroke fill markers"
         id="path17134" /><path
         d="m 220.02837,32.44387 -0.7094,-0.162572 c -0.14779,-0.02956 -0.20691,-0.05912 -0.32514,-0.192129 l -2.14298,-2.379451 2.00997,-2.03953 c 0.10345,-0.103454 0.17735,-0.103454 0.31036,-0.133013 l 0.69462,-0.133013 v -0.91631 h -1.53703 l -2.60114,2.675035 c -0.13302,0.133013 -0.29559,0.266026 -0.5025,0.266026 -0.2808,0 -0.36948,-0.133013 -0.36948,-0.399039 v -5.512641 h -2.32033 v 0.91631 l 0.65028,0.133013 c 0.16258,0.02956 0.20691,0.0739 0.20691,0.266026 v 7.212249 c 0,0.19213 -0.0443,0.236467 -0.20691,0.266026 l -0.65028,0.133013 v 0.91631 h 3.16275 v -0.91631 l -0.63551,-0.133013 c -0.17735,-0.02956 -0.20691,-0.0739 -0.20691,-0.266026 v -1.551816 c 0,-0.266025 0.0887,-0.399038 0.36948,-0.399038 0.23647,0 0.36948,0.103454 0.5025,0.280805 l 2.42379,2.985398 h 1.87695 z"
         style="font-weight:bold;font-size:14.7792px;line-height:1.1;font-family:Kontrapunkt;-inkscape-font-specification:'Kontrapunkt Bold';letter-spacing:-0.661458px;stroke-width:0.500001;stroke-linejoin:round;paint-order:stroke fill markers"
         id="path17136" /><path
         d="m 224.62832,33.212388 -0.13302,-0.990206 c 0,0 -0.65028,0.118233 -0.97542,0.118233 -0.84242,0 -0.93109,-0.206909 -0.93109,-0.975427 v -3.768696 h 2.03953 v -1.10844 h -2.03953 v -1.832621 h -1.46314 v 1.832621 h -1.37447 v 1.10844 h 1.37447 V 31.1433 c 0,1.581374 0.22168,2.275997 2.02475,2.275997 0.78329,0 1.47792,-0.206909 1.47792,-0.206909 z"
         style="font-weight:bold;font-size:14.7792px;line-height:1.1;font-family:Kontrapunkt;-inkscape-font-specification:'Kontrapunkt Bold';letter-spacing:-0.661458px;stroke-width:0.500001;stroke-linejoin:round;paint-order:stroke fill markers"
         id="path17138" /><path
         d="m 230.97219,26.458294 c 0,0 -0.53205,-0.05912 -0.85719,-0.05912 -0.63551,0 -1.0641,0.0739 -1.0641,0.0739 l -1.06411,0.753739 c -0.11823,0.0739 -0.23646,0.147792 -0.38426,0.147792 -0.23646,0 -0.2808,-0.17735 -0.29558,-0.280805 l -0.0887,-0.605947 h -1.89173 v 0.91631 l 0.65028,0.133013 c 0.16257,0.02956 0.20691,0.0739 0.20691,0.266026 v 4.24163 c 0,0.19213 -0.0443,0.236467 -0.20691,0.266026 l -0.65028,0.133013 v 0.91631 h 3.16275 v -0.91631 l -0.63551,-0.133013 c -0.17735,-0.02956 -0.22169,-0.0739 -0.22169,-0.266026 v -4.167734 c 0,0 0.8572,-0.133013 2.08387,-0.133013 0.48771,0 1.15278,0.05912 1.15278,0.05912 z"
         style="font-weight:bold;font-size:14.7792px;line-height:1.1;font-family:Kontrapunkt;-inkscape-font-specification:'Kontrapunkt Bold';letter-spacing:-0.661458px;stroke-width:0.500001;stroke-linejoin:round;paint-order:stroke fill markers"
         id="path17140" /><path
         d="m 233.35525,25.23162 v -1.714387 h -1.78829 v 1.714387 z m 0.84241,8.12856 v -0.91631 l -0.63551,-0.133013 c -0.17735,-0.02956 -0.2069,-0.0739 -0.2069,-0.266026 v -5.556979 h -2.32034 v 0.91631 l 0.65029,0.133013 c 0.16257,0.02956 0.2069,0.0739 0.2069,0.266026 v 4.24163 c 0,0.19213 -0.0443,0.236467 -0.2069,0.266026 l -0.65029,0.133013 v 0.91631 z"
         style="font-weight:bold;font-size:14.7792px;line-height:1.1;font-family:Kontrapunkt;-inkscape-font-specification:'Kontrapunkt Bold';letter-spacing:-0.661458px;stroke-width:0.500001;stroke-linejoin:round;paint-order:stroke fill markers"
         id="path17142" /><path
         d="m 241.44306,31.276313 c 0,-1.891738 -1.10844,-1.980413 -2.9115,-2.03953 -1.25623,-0.05912 -2.09864,0.08868 -2.09864,-0.768518 0,-0.768519 0.41381,-0.886752 1.78828,-0.886752 1.30057,0 2.64548,0.251246 2.64548,0.251246 l 0.16257,-1.123219 c 0,0 -1.34491,-0.310363 -2.83761,-0.310363 -2.14298,0 -3.17753,0.384259 -3.17753,2.113425 0,2.03953 1.38925,1.950855 3.01496,2.03953 1.37447,0.08867 1.96563,-0.0739 1.96563,0.812856 0,0.650285 -0.53205,0.91631 -1.83262,0.91631 -1.35968,0 -2.92628,-0.310363 -2.92628,-0.310363 l -0.17735,1.197115 c 0,0 1.38925,0.295584 3.2662,0.295584 1.89174,0 3.11841,-0.458155 3.11841,-2.187321 z"
         style="font-weight:bold;font-size:14.7792px;line-height:1.1;font-family:Kontrapunkt;-inkscape-font-specification:'Kontrapunkt Bold';letter-spacing:-0.661458px;stroke-width:0.500001;stroke-linejoin:round;paint-order:stroke fill markers"
         id="path17144" /><path
         d="m 248.33377,33.16805 -0.17735,-1.078881 c 0,0 -1.00499,0.206909 -2.08387,0.206909 -1.96563,0 -2.26122,-0.399039 -2.26122,-2.364672 0,-1.980413 0.29559,-2.335114 2.26122,-2.335114 1.07888,0 2.08387,0.19213 2.08387,0.19213 l 0.17735,-1.10844 c 0,0 -1.30057,-0.280805 -2.6307,-0.280805 -2.46813,0 -3.38444,0.694622 -3.38444,3.532229 0,2.837606 0.91631,3.532228 3.38444,3.532228 1.64049,0 2.6307,-0.295584 2.6307,-0.295584 z"
         style="font-weight:bold;font-size:14.7792px;line-height:1.1;font-family:Kontrapunkt;-inkscape-font-specification:'Kontrapunkt Bold';letter-spacing:-0.661458px;stroke-width:0.500001;stroke-linejoin:round;paint-order:stroke fill markers"
         id="path17146" /><path
         d="m 256.24425,29.029874 c 0,-2.083867 -0.57639,-2.630697 -2.71937,-2.630697 -0.3547,0 -0.7833,0.08867 -0.7833,0.08867 l -0.85719,0.605947 c -0.13301,0.08867 -0.19213,0.118234 -0.31036,0.118234 -0.19213,0 -0.26603,-0.103455 -0.26603,-0.325143 v -3.369657 h -2.32033 v 0.91631 l 0.65028,0.133013 c 0.16257,0.02956 0.20691,0.0739 0.20691,0.266026 v 7.212249 c 0,0.19213 -0.0443,0.236467 -0.20691,0.266026 l -0.65028,0.133013 v 0.91631 h 3.16275 v -0.91631 l -0.63551,-0.133013 c -0.17735,-0.02956 -0.20691,-0.0739 -0.20691,-0.266026 v -4.300747 c 0.33992,-0.05912 1.09366,-0.17735 1.81784,-0.17735 1.37447,0 1.65527,0.206908 1.65527,1.581374 v 2.896723 c 0,0.19213 -0.0443,0.236467 -0.20691,0.266026 l -0.65028,0.133013 v 0.91631 h 3.16275 v -0.91631 l -0.63551,-0.133013 c -0.17735,-0.02956 -0.20691,-0.0739 -0.20691,-0.266026 z"
         style="font-weight:bold;font-size:14.7792px;line-height:1.1;font-family:Kontrapunkt;-inkscape-font-specification:'Kontrapunkt Bold';letter-spacing:-0.661458px;stroke-width:0.500001;stroke-linejoin:round;paint-order:stroke fill markers"
         id="path17148" /><path
         d="m 264.58332,29.414134 c 0,-2.394231 -0.76851,-3.014957 -3.35487,-3.014957 -1.59616,0 -2.64548,0.251246 -3.11842,1.271011 -0.23646,0.532051 -0.36948,1.389245 -0.36948,2.261218 0,3.029736 1.33013,3.532228 3.66525,3.532228 1.58137,0 2.77849,-0.384259 2.77849,-0.384259 l -0.19213,-1.064102 c -0.82764,0.147792 -1.53704,0.280805 -2.43857,0.280805 -0.60595,0 -1.46314,0 -1.9213,-0.487714 -0.29558,-0.339922 -0.39904,-0.857194 -0.39904,-1.315349 v -0.310363 c 0,-0.19213 0.0887,-0.325142 0.28081,-0.325142 0.13301,0 0.19213,0.04434 0.29558,0.118233 l 0.63551,0.443376 c 0,0 0.50249,0.08868 1.55181,0.08868 1.10844,0 2.05431,-0.103454 2.54203,-0.118233 0.0295,-0.487714 0.0443,-0.724181 0.0443,-0.975427 z m -1.50747,-0.05912 c -0.7833,0.0739 -1.86218,0.04434 -1.86218,0.04434 0,0 -1.06411,0.04434 -1.96564,-0.08867 0.0887,-1.47792 0.13302,-1.788283 2.05431,-1.788283 1.40403,0 1.77351,0.17735 1.77351,1.832621 z"
         style="font-weight:bold;font-size:14.7792px;line-height:1.1;font-family:Kontrapunkt;-inkscape-font-specification:'Kontrapunkt Bold';letter-spacing:-0.661458px;stroke-width:0.500001;stroke-linejoin:round;paint-order:stroke fill markers"
         id="path17150" /><path
         d="m 118.55946,49.97563 v -1.315349 h -5.42397 v -3.088852 h 5.24662 v -1.285791 h -5.24662 v -2.837606 h 5.42397 v -1.315349 h -7.93643 v 1.004986 l 0.76852,0.147792 c 0.17735,0.04434 0.20691,0.162571 0.20691,0.266025 v 7.005341 c 0,0.103454 -0.0296,0.221688 -0.20691,0.266025 l -0.76852,0.147792 v 1.004986 z"
         style="font-weight:bold;font-size:14.7792px;line-height:1.1;font-family:Kontrapunkt;-inkscape-font-specification:'Kontrapunkt Bold';letter-spacing:-0.661458px;stroke-width:0.500001;stroke-linejoin:round;paint-order:stroke fill markers"
         id="path17152" /><path
         d="m 127.44536,49.97563 v -0.91631 l -0.63551,-0.133013 c -0.17735,-0.02956 -0.2069,-0.0739 -0.2069,-0.266026 v -3.014956 c 0,-2.083868 -0.59117,-2.630698 -2.73416,-2.630698 -0.26602,0 -0.87197,0.05912 -0.87197,0.05912 l -0.93109,0.650285 c -0.11823,0.0739 -0.23647,0.147792 -0.38426,0.147792 -0.23646,0 -0.2808,-0.177351 -0.29558,-0.280805 l -0.0591,-0.487714 h -1.98041 v 0.916311 l 0.65028,0.133012 c 0.16257,0.02956 0.20691,0.0739 0.20691,0.266026 v 4.24163 c 0,0.19213 -0.0443,0.236467 -0.20691,0.266026 l -0.65028,0.133013 v 0.91631 h 3.16275 v -0.91631 l -0.63551,-0.133013 c -0.17735,-0.02956 -0.20691,-0.0739 -0.20691,-0.266026 v -4.300747 c 0.33992,-0.05912 1.09366,-0.17735 1.81784,-0.17735 1.37447,0 1.65528,0.206909 1.65528,1.581374 v 2.896723 c 0,0.19213 -0.0443,0.236467 -0.20691,0.266026 l -0.65029,0.133013 v 0.91631 z"
         style="font-weight:bold;font-size:14.7792px;line-height:1.1;font-family:Kontrapunkt;-inkscape-font-specification:'Kontrapunkt Bold';letter-spacing:-0.661458px;stroke-width:0.500001;stroke-linejoin:round;paint-order:stroke fill markers"
         id="path17154" /><path
         d="m 134.94202,46.029584 c 0,-2.394231 -0.76852,-3.014957 -3.35488,-3.014957 -1.59616,0 -2.64548,0.251246 -3.11841,1.271011 -0.23647,0.532051 -0.36948,1.389245 -0.36948,2.261218 0,3.029736 1.33012,3.532228 3.66524,3.532228 1.58137,0 2.77849,-0.384259 2.77849,-0.384259 l -0.19213,-1.064102 c -0.82764,0.147792 -1.53704,0.280805 -2.43857,0.280805 -0.60595,0 -1.46314,0 -1.9213,-0.487714 -0.29558,-0.339922 -0.39903,-0.857193 -0.39903,-1.315349 v -0.310363 c 0,-0.192129 0.0887,-0.325142 0.2808,-0.325142 0.13301,0 0.19213,0.04434 0.29558,0.118233 l 0.63551,0.443376 c 0,0 0.50249,0.08868 1.55182,0.08868 1.10844,0 2.0543,-0.103455 2.54202,-0.118234 0.0296,-0.487714 0.0443,-0.724181 0.0443,-0.975427 z m -1.50748,-0.05912 c -0.7833,0.0739 -1.86218,0.04434 -1.86218,0.04434 0,0 -1.0641,0.04434 -1.96563,-0.08868 0.0887,-1.47792 0.13301,-1.788283 2.0543,-1.788283 1.40403,0 1.77351,0.177351 1.77351,1.832621 z"
         style="font-weight:bold;font-size:14.7792px;line-height:1.1;font-family:Kontrapunkt;-inkscape-font-specification:'Kontrapunkt Bold';letter-spacing:-0.661458px;stroke-width:0.500001;stroke-linejoin:round;paint-order:stroke fill markers"
         id="path17156" /><path
         d="m 141.38935,43.073744 c 0,0 -0.53205,-0.05912 -0.85719,-0.05912 -0.63551,0 -1.06411,0.0739 -1.06411,0.0739 l -1.0641,0.753739 c -0.11823,0.0739 -0.23647,0.147792 -0.38426,0.147792 -0.23647,0 -0.2808,-0.17735 -0.29558,-0.280805 l -0.0887,-0.605947 h -1.89174 v 0.916311 l 0.65029,0.133012 c 0.16257,0.02956 0.20691,0.0739 0.20691,0.266026 v 4.24163 c 0,0.19213 -0.0443,0.236467 -0.20691,0.266026 l -0.65029,0.133013 v 0.91631 h 3.16275 v -0.91631 l -0.6355,-0.133013 c -0.17735,-0.02956 -0.22169,-0.0739 -0.22169,-0.266026 v -4.167734 c 0,0 0.85719,-0.133013 2.08387,-0.133013 0.48771,0 1.15277,0.05912 1.15277,0.05912 z"
         style="font-weight:bold;font-size:14.7792px;line-height:1.1;font-family:Kontrapunkt;-inkscape-font-specification:'Kontrapunkt Bold';letter-spacing:-0.661458px;stroke-width:0.500001;stroke-linejoin:round;paint-order:stroke fill markers"
         id="path17158" /><path
         d="m 143.09256,47.773529 c 0,0 0.51727,0.19213 1.62571,0.19213 2.49769,0 3.31054,-0.413818 3.31054,-2.290776 0,-0.103454 -0.0296,-0.354701 -0.0296,-0.354701 l -0.82763,-0.842414 c -0.0591,-0.05912 -0.13301,-0.118234 -0.13301,-0.221688 0,-0.147792 0.0887,-0.221688 0.25124,-0.221688 l 1.67005,-0.0739 v -0.916311 l -4.16773,-0.02956 c -2.68982,-0.02956 -3.22187,0.56161 -3.22187,2.482906 0,1.28579 0.22169,1.610932 0.79808,1.965633 0.0591,0.04434 0.14779,0.08868 0.14779,0.221688 0,0.08868 -0.0443,0.147792 -0.10345,0.206909 l -0.76852,0.798077 c 0,0.0739 -0.0148,0.17735 -0.0148,0.266025 0,1.271011 1.21189,1.211895 2.09865,1.211895 h 2.14298 c 0.22169,0 0.45815,0 0.66506,0.01478 0.5025,0.05912 0.66507,0.17735 0.66507,0.73896 0,0.458155 -0.17735,0.605947 -0.63551,0.694622 -0.39904,0.08868 -1.34491,0.118234 -1.83262,0.118234 -1.16756,0 -2.80805,-0.221688 -2.82283,-0.221688 l -0.11823,1.152777 c 0,0 1.37447,0.251247 2.95584,0.251247 3.28098,0 3.88693,-0.472935 3.88693,-2.009971 0,-1.640492 -0.59117,-1.965634 -2.49768,-1.965634 H 144.201 c -1.10844,0 -1.18234,-0.103454 -1.18234,-0.591168 0,-0.280805 0.0739,-0.576389 0.0739,-0.576389 z m 3.44355,-2.290776 c 0,1.389245 -0.44337,1.463141 -1.74394,1.463141 -1.30057,0 -1.71439,-0.04434 -1.71439,-1.433582 0,-1.330128 0.36948,-1.463141 1.71439,-1.463141 0.65028,0 1.61093,0.02956 1.61093,0.02956 0.0887,0.413818 0.13301,0.975428 0.13301,1.404024 z"
         style="font-weight:bold;font-size:14.7792px;line-height:1.1;font-family:Kontrapunkt;-inkscape-font-specification:'Kontrapunkt Bold';letter-spacing:-0.661458px;stroke-width:0.500001;stroke-linejoin:round;paint-order:stroke fill markers"
         id="path17160" /><path
         d="m 151.54986,41.84707 v -1.714387 h -1.78829 v 1.714387 z m 0.84241,8.12856 v -0.91631 l -0.63551,-0.133013 c -0.17735,-0.02956 -0.2069,-0.0739 -0.2069,-0.266026 v -5.556979 h -2.32034 v 0.916311 l 0.65029,0.133012 c 0.16257,0.02956 0.2069,0.0739 0.2069,0.266026 v 4.24163 c 0,0.19213 -0.0443,0.236467 -0.2069,0.266026 l -0.65029,0.133013 v 0.91631 z"
         style="font-weight:bold;font-size:14.7792px;line-height:1.1;font-family:Kontrapunkt;-inkscape-font-specification:'Kontrapunkt Bold';letter-spacing:-0.661458px;stroke-width:0.500001;stroke-linejoin:round;paint-order:stroke fill markers"
         id="path17162" /><path
         d="m 159.96281,46.029584 c 0,-2.394231 -0.76851,-3.014957 -3.35487,-3.014957 -1.59616,0 -2.64548,0.251246 -3.11842,1.271011 -0.23646,0.532051 -0.36948,1.389245 -0.36948,2.261218 0,3.029736 1.33013,3.532228 3.66525,3.532228 1.58137,0 2.77849,-0.384259 2.77849,-0.384259 l -0.19213,-1.064102 c -0.82764,0.147792 -1.53704,0.280805 -2.43857,0.280805 -0.60595,0 -1.46314,0 -1.9213,-0.487714 -0.29558,-0.339922 -0.39904,-0.857193 -0.39904,-1.315349 v -0.310363 c 0,-0.192129 0.0887,-0.325142 0.28081,-0.325142 0.13301,0 0.19213,0.04434 0.29558,0.118233 l 0.63551,0.443376 c 0,0 0.50249,0.08868 1.55181,0.08868 1.10844,0 2.05431,-0.103455 2.54203,-0.118234 0.0296,-0.487714 0.0443,-0.724181 0.0443,-0.975427 z m -1.50747,-0.05912 c -0.7833,0.0739 -1.86218,0.04434 -1.86218,0.04434 0,0 -1.06411,0.04434 -1.96564,-0.08868 0.0887,-1.47792 0.13302,-1.788283 2.05431,-1.788283 1.40403,0 1.77351,0.177351 1.77351,1.832621 z"
         style="font-weight:bold;font-size:14.7792px;line-height:1.1;font-family:Kontrapunkt;-inkscape-font-specification:'Kontrapunkt Bold';letter-spacing:-0.661458px;stroke-width:0.500001;stroke-linejoin:round;paint-order:stroke fill markers"
         id="path17164" /><path
         d="m 167.2969,47.891763 c 0,-1.891738 -1.10844,-1.980413 -2.9115,-2.03953 -1.25623,-0.05912 -2.09865,0.08868 -2.09865,-0.768518 0,-0.768518 0.41382,-0.886752 1.78829,-0.886752 1.30056,0 2.64547,0.251246 2.64547,0.251246 l 0.16257,-1.123219 c 0,0 -1.3449,-0.310363 -2.8376,-0.310363 -2.14299,0 -3.17753,0.384259 -3.17753,2.113426 0,2.039529 1.38924,1.950854 3.01496,2.039529 1.37446,0.08867 1.96563,-0.0739 1.96563,0.812856 0,0.650285 -0.53205,0.91631 -1.83262,0.91631 -1.35969,0 -2.92628,-0.310363 -2.92628,-0.310363 l -0.17735,1.197115 c 0,0 1.38924,0.295584 3.2662,0.295584 1.89174,0 3.11841,-0.458155 3.11841,-2.187321 z"
         style="font-weight:bold;font-size:14.7792px;line-height:1.1;font-family:Kontrapunkt;-inkscape-font-specification:'Kontrapunkt Bold';letter-spacing:-0.661458px;stroke-width:0.500001;stroke-linejoin:round;paint-order:stroke fill markers"
         id="path17166" /><path
         d="m 168.73409,47.404049 c 0,1.995192 0.6355,2.675035 2.42379,2.675035 0.36948,0 0.76851,-0.05912 0.76851,-0.05912 l 0.8572,-0.605948 c 0.10345,-0.05912 0.16257,-0.118233 0.31036,-0.118233 0.19213,0 0.28081,0.103454 0.28081,0.325142 v 0.325143 c 0,1.537036 -0.28081,1.8474 -1.93608,1.8474 -1.09366,0 -2.18732,-0.221688 -2.18732,-0.221688 l -0.14779,1.09366 c 0,0 1.22667,0.251247 2.37945,0.251247 2.5568,0 3.29576,-0.591168 3.29576,-3.32532 v -5.17272 c 0,-0.19213 0.0296,-0.236467 0.20691,-0.266026 l 0.6355,-0.133012 v -0.916311 h -3.16274 v 0.916311 l 0.65028,0.133012 c 0.16257,0.02956 0.20691,0.0739 0.20691,0.266026 v 4.315526 c -0.3547,0.05912 -0.75374,0.177351 -1.47792,0.177351 -1.37447,0 -1.65527,-0.177351 -1.65527,-1.551816 v -2.941061 c 0,-0.19213 0.0443,-0.236467 0.20691,-0.266026 l 0.65028,-0.133012 v -0.916311 h -3.16275 v 0.916311 l 0.65029,0.133012 c 0.16257,0.02956 0.20691,0.0739 0.20691,0.266026 z"
         style="font-weight:bold;font-size:14.7792px;line-height:1.1;font-family:Kontrapunkt;-inkscape-font-specification:'Kontrapunkt Bold';letter-spacing:-0.661458px;stroke-width:0.500001;stroke-linejoin:round;paint-order:stroke fill markers"
         id="path17168" /><path
         d="m 182.80749,47.891763 c 0,-1.891738 -1.10844,-1.980413 -2.9115,-2.03953 -1.25623,-0.05912 -2.09865,0.08868 -2.09865,-0.768518 0,-0.768518 0.41382,-0.886752 1.78828,-0.886752 1.30057,0 2.64548,0.251246 2.64548,0.251246 l 0.16257,-1.123219 c 0,0 -1.3449,-0.310363 -2.8376,-0.310363 -2.14299,0 -3.17753,0.384259 -3.17753,2.113426 0,2.039529 1.38924,1.950854 3.01496,2.039529 1.37446,0.08867 1.96563,-0.0739 1.96563,0.812856 0,0.650285 -0.53205,0.91631 -1.83262,0.91631 -1.35969,0 -2.92628,-0.310363 -2.92628,-0.310363 l -0.17735,1.197115 c 0,0 1.38924,0.295584 3.2662,0.295584 1.89174,0 3.11841,-0.458155 3.11841,-2.187321 z"
         style="font-weight:bold;font-size:14.7792px;line-height:1.1;font-family:Kontrapunkt;-inkscape-font-specification:'Kontrapunkt Bold';letter-spacing:-0.661458px;stroke-width:0.500001;stroke-linejoin:round;paint-order:stroke fill markers"
         id="path17170" /><path
         d="m 187.90992,49.827838 -0.13301,-0.990206 c 0,0 -0.65029,0.118233 -0.97543,0.118233 -0.84242,0 -0.93109,-0.206909 -0.93109,-0.975427 v -3.768696 h 2.03953 v -1.10844 h -2.03953 v -1.832621 h -1.46314 v 1.832621 h -1.37447 v 1.10844 h 1.37447 v 3.547008 c 0,1.581374 0.22169,2.275997 2.02475,2.275997 0.7833,0 1.47792,-0.206909 1.47792,-0.206909 z"
         style="font-weight:bold;font-size:14.7792px;line-height:1.1;font-family:Kontrapunkt;-inkscape-font-specification:'Kontrapunkt Bold';letter-spacing:-0.661458px;stroke-width:0.500001;stroke-linejoin:round;paint-order:stroke fill markers"
         id="path17172" /><path
         d="m 195.46569,46.029584 c 0,-2.394231 -0.76851,-3.014957 -3.35487,-3.014957 -1.59616,0 -2.64548,0.251246 -3.11842,1.271011 -0.23646,0.532051 -0.36948,1.389245 -0.36948,2.261218 0,3.029736 1.33013,3.532228 3.66525,3.532228 1.58137,0 2.77849,-0.384259 2.77849,-0.384259 l -0.19213,-1.064102 c -0.82764,0.147792 -1.53704,0.280805 -2.43857,0.280805 -0.60595,0 -1.46314,0 -1.9213,-0.487714 -0.29558,-0.339922 -0.39904,-0.857193 -0.39904,-1.315349 v -0.310363 c 0,-0.192129 0.0887,-0.325142 0.28081,-0.325142 0.13301,0 0.19213,0.04434 0.29558,0.118233 l 0.63551,0.443376 c 0,0 0.50249,0.08868 1.55181,0.08868 1.10844,0 2.05431,-0.103455 2.54203,-0.118234 0.0296,-0.487714 0.0443,-0.724181 0.0443,-0.975427 z m -1.50747,-0.05912 c -0.7833,0.0739 -1.86218,0.04434 -1.86218,0.04434 0,0 -1.06411,0.04434 -1.96564,-0.08868 0.0887,-1.47792 0.13302,-1.788283 2.05431,-1.788283 1.40403,0 1.77351,0.177351 1.77351,1.832621 z"
         style="font-weight:bold;font-size:14.7792px;line-height:1.1;font-family:Kontrapunkt;-inkscape-font-specification:'Kontrapunkt Bold';letter-spacing:-0.661458px;stroke-width:0.500001;stroke-linejoin:round;paint-order:stroke fill markers"
         id="path17174" /><path
         d="m 205.40092,43.014627 c -0.47294,0 -0.99021,0.04434 -0.99021,0.04434 l -0.94587,0.650284 c -0.22169,0.162572 -0.31036,0.206909 -0.54683,0 -0.66506,-0.591168 -1.12322,-0.694622 -2.02475,-0.694622 -0.45815,0 -0.65028,0.02956 -0.97543,0.05912 l -0.93109,0.650285 c -0.11823,0.0739 -0.23646,0.147792 -0.38426,0.147792 -0.23646,0 -0.2808,-0.177351 -0.29558,-0.280805 l -0.0591,-0.487714 h -1.98041 v 0.916311 l 0.65029,0.133012 c 0.16257,0.02956 0.2069,0.0739 0.2069,0.266026 v 4.24163 c 0,0.19213 -0.0443,0.236467 -0.2069,0.266026 l -0.65029,0.133013 v 0.91631 h 3.16275 v -0.91631 l -0.63551,-0.133013 c -0.17735,-0.02956 -0.2069,-0.0739 -0.2069,-0.266026 V 44.34476 c 0.31036,-0.05912 0.97542,-0.162571 1.68482,-0.162571 1.35969,0 1.6405,0.206909 1.6405,1.581374 v 2.896723 c 0,0.19213 -0.0443,0.236467 -0.20691,0.266026 l -0.65029,0.133013 v 0.91631 h 3.16275 v -0.91631 l -0.63551,-0.133013 c -0.17735,-0.02956 -0.2069,-0.0739 -0.2069,-0.266026 v -3.413995 c 0,-0.310363 -0.0591,-0.635505 -0.17735,-0.901531 0.3547,-0.0739 1.09366,-0.147792 1.81784,-0.147792 1.37446,0 1.65527,0.19213 1.65527,1.581374 v 2.881944 c 0,0.19213 -0.0443,0.236467 -0.20691,0.266026 l -0.65029,0.133013 v 0.91631 h 3.16275 v -0.91631 l -0.6355,-0.133013 c -0.17735,-0.02956 -0.20691,-0.0739 -0.20691,-0.266026 V 45.64533 c 0,-2.083868 -0.59117,-2.630698 -2.73415,-2.630698 z"
         style="font-weight:bold;font-size:14.7792px;line-height:1.1;font-family:Kontrapunkt;-inkscape-font-specification:'Kontrapunkt Bold';letter-spacing:-0.661458px;stroke-width:0.500001;stroke-linejoin:round;paint-order:stroke fill markers"
         id="path17176" /><path
         d="m 216.47414,46.029584 c 0,-2.394231 -0.76852,-3.014957 -3.35488,-3.014957 -1.59615,0 -2.64548,0.251246 -3.11841,1.271011 -0.23647,0.532051 -0.36948,1.389245 -0.36948,2.261218 0,3.029736 1.33013,3.532228 3.66524,3.532228 1.58138,0 2.77849,-0.384259 2.77849,-0.384259 l -0.19213,-1.064102 c -0.82763,0.147792 -1.53704,0.280805 -2.43857,0.280805 -0.60594,0 -1.46314,0 -1.92129,-0.487714 -0.29559,-0.339922 -0.39904,-0.857193 -0.39904,-1.315349 v -0.310363 c 0,-0.192129 0.0887,-0.325142 0.2808,-0.325142 0.13302,0 0.19213,0.04434 0.29559,0.118233 l 0.6355,0.443376 c 0,0 0.5025,0.08868 1.55182,0.08868 1.10844,0 2.05431,-0.103455 2.54202,-0.118234 0.0296,-0.487714 0.0443,-0.724181 0.0443,-0.975427 z m -1.50748,-0.05912 c -0.7833,0.0739 -1.86218,0.04434 -1.86218,0.04434 0,0 -1.0641,0.04434 -1.96563,-0.08868 0.0887,-1.47792 0.13301,-1.788283 2.05431,-1.788283 1.40402,0 1.7735,0.177351 1.7735,1.832621 z"
         style="font-weight:bold;font-size:14.7792px;line-height:1.1;font-family:Kontrapunkt;-inkscape-font-specification:'Kontrapunkt Bold';letter-spacing:-0.661458px;stroke-width:0.500001;stroke-linejoin:round;paint-order:stroke fill markers"
         id="path17178" /></g><path
       id="path923"
       style="font-weight:bold;font-size:58.3224px;line-height:1.25;font-family:Kontrapunkt;-inkscape-font-specification:'Kontrapunkt Bold';letter-spacing:-3.96877px;stroke-width:0.500001;stroke-linejoin:round;paint-order:stroke fill markers"
       d="m 13.764017,22.392945 c -6.298812,0 -10.439393,0.991473 -12.305708,5.015715 C 0.525152,29.508264 0,32.890611 0,36.331629 0,48.28771 5.249303,50.27083 14.464233,50.27083 c 6.240491,0 10.964189,-1.516186 10.964189,-1.516186 l -0.758094,-4.199227 c -3.26605,0.583223 -6.065521,1.107943 -9.623185,1.107943 -2.391215,0 -5.773973,2.06e-4 -7.581966,-1.924431 C 6.29873,42.397515 5.890596,40.356024 5.890596,38.548032 V 37.3233 c 0,-0.758191 0.350269,-1.283126 1.10846,-1.283126 0.524901,0 0.75808,0.175027 1.166337,0.466639 l 2.507857,1.749764 c 0,0 1.982771,0.349849 6.123657,0.349849 4.374176,0 8.106792,-0.408315 10.031429,-0.466638 0.116645,-1.924637 0.175183,-2.857898 0.175183,-3.849378 0,-3.083112 -0.323353,-5.420432 -1.11311,-7.171138 h -6.803202 v -3.978569 c 0,-0.139942 0.0036,-0.276847 0.0088,-0.411861 -1.508424,-0.236381 -3.274374,-0.335897 -5.331975,-0.335897 z m 0.291972,4.432288 c 5.540623,0 6.99854,0.700015 6.99854,7.232117 -3.091084,0.291611 -7.348906,0.174666 -7.348906,0.174666 0,0 -4.19897,0.175052 -7.756632,-0.349849 0.349933,-5.832235 0.525095,-7.056934 8.106998,-7.056934 z"
       sodipodi:nodetypes="scssccscsssccscsccscsscccs" /><path
       id="path925"
       style="color:#000000;font-weight:bold;font-size:22.9956px;font-family:Arial;-inkscape-font-specification:'Kontrapunkt Bold';fill:#b3c346;fill-opacity:1;stroke:none;stroke-width:1.32292;stroke-dasharray:none;paint-order:stroke fill markers"
       d="m 26.401541,10.583385 c -3.23147,0 -6.06294,0.670049 -6.06294,0.670049 l -0.60433,0.141984 0.60846,3.069672 0.67045,-0.147818 c 0,0 2.70107,-0.592248 5.27369,-0.592248 1.42183,0 2.14256,0.175364 2.38685,0.348639 0.12214,0.08664 0.17691,0.160476 0.23295,0.339885 0.056,0.179411 0.0857,0.462526 0.0857,0.837802 0,0.513427 -0.0613,0.68181 -0.24483,0.865519 -0.18355,0.183709 -0.62265,0.415896 -1.43077,0.699708 h -0.002 l -3.34345,1.196166 c -1.32907,0.471907 -2.38108,0.873165 -3.1389,1.659073 -0.75818,0.786269 -1.0847,1.89146 -1.0847,3.467908 v 3.318631 h 13.21574 V 25.834501 23.2749 h -9.58872 v -0.135176 c 0,-0.751017 0.10853,-1.049221 0.29545,-1.258406 0.18692,-0.209183 0.59316,-0.417412 1.33366,-0.705057 h -0.004 c 1.38083,-0.528693 2.891,-0.961891 4.34653,-1.519033 l 0.002,-0.002 c 1.11443,-0.421269 1.98554,-0.903067 2.5697,-1.653724 0.58467,-0.751306 0.81817,-1.709493 0.81817,-2.923799 0,-1.65617 -0.58889,-2.905581 -1.7319,-3.608433 -1.143,-0.702852 -2.67658,-0.885942 -4.60273,-0.885942 z" /><path
       d="m 66.145932,49.862595 v -3.615988 l -2.50787,-0.524902 c -0.69986,-0.116645 -0.81651,-0.291612 -0.81651,-1.049803 v -11.89777 c 0,-8.223458 -2.3329,-10.381387 -10.78964,-10.381387 -1.04981,0 -3.44102,0.23329 -3.44102,0.23329 l -3.67432,2.566186 c -0.46658,0.291612 -0.93315,0.583224 -1.51638,0.583224 -0.93316,0 -1.10812,-0.699869 -1.16645,-1.108126 l -0.23329,-1.924639 h -7.815198 v 3.615989 l 2.566186,0.524901 c 0.641546,0.116645 0.816514,0.291612 0.816514,1.049803 v 16.738529 c 0,0.758191 -0.174968,0.933158 -0.816514,1.049803 l -2.566186,0.524902 v 3.615988 h 12.480998 v -3.615988 l -2.50787,-0.524902 c -0.69987,-0.116645 -0.81651,-0.291612 -0.81651,-1.049803 V 27.700084 c 1.34141,-0.23329 4.31586,-0.699869 7.17365,-0.699869 5.42399,0 6.53211,0.816514 6.53211,6.240497 v 11.43119 c 0,0.758191 -0.17496,0.933158 -0.81651,1.049803 l -2.56619,0.524902 v 3.615988 z"
       style="font-weight:bold;font-size:58.3224px;line-height:1.25;font-family:Kontrapunkt;-inkscape-font-specification:'Kontrapunkt Bold';letter-spacing:-3.96877px;stroke-width:0.500001;stroke-linejoin:round;paint-order:stroke fill markers"
       id="path929" /></g></svg>
