<?xml version="1.0" encoding="utf-8"?>
<!-- Generator: Adobe Illustrator 25.2.3, SVG Export Plug-In . SVG Version: 6.00 Build 0)  -->
<svg version="1.1" id="Ebene_1" xmlns="http://www.w3.org/2000/svg" xmlns:xlink="http://www.w3.org/1999/xlink" x="0px" y="0px"
	 viewBox="0 0 258 72" style="enable-background:new 0 0 258 72;" xml:space="preserve">
<style type="text/css">
	.st0{fill:#FFFFFF;}
	.st1{fill:#179C7D;}
</style>
<g>
	<rect id="Logoweiß" class="st0" width="41.7" height="41.7"/>
	<g>
		<path class="st1" d="M0,41.68c9.92-5.08,24.45-13.29,41.7-25.31v-4.03C26.52,22.23,11.08,30.16,0,35.41V41.68z"/>
		<path class="st1" d="M0,29.65c11.05-4.48,26.49-11.4,41.7-20.4V7.25C27.4,14.31,12.54,18.73,0,21.49V29.65z"/>
		<path class="st1" d="M41.7,41.7V21.42c-9.49,7.97-18.89,14.86-26.79,20.28H41.7z"/>
		<path class="st1" d="M9.58,41.7c7.5-4.43,16.6-10.21,25.67-16.97c2.12-1.58,4.27-3.2,6.46-4.88v-2.51
			C28.28,27.35,14.59,35.69,3.89,41.7H9.58z"/>
		<path class="st1" d="M0,18.54c12.2-2.14,27.12-5.98,41.7-12.87V3.41C27.01,9.97,12.3,12.75,0,13.74V18.54z"/>
		<path class="st1" d="M0,0v11.62c0.91-0.06,1.84-0.12,2.79-0.19c10.14-0.78,23.98-2.56,38.91-8.98V0H0z"/>
	</g>
	<g>
		<path d="M243.93,41.7h5.34v-7.53c0-2.95,0-8.36,4.34-8.36c0.96,0,1.92,0.16,2.39,0.44v-5.38c-0.56-0.16-1.12-0.16-1.64-0.16
			c-3.19,0-5.37,3.23-5.61,5.14h-0.08v-4.66h-4.73V41.7z M238.6,36.2c-1.99,1.11-4.22,2.07-6.81,2.07c-3.3,0-5.61-1.87-5.85-5.18
			h14.17c0-7.17-2.15-12.38-9.76-12.38c-6.37,0-9.51,4.9-9.51,10.83c0,6.73,3.94,10.64,10.71,10.64c2.87,0,5.09-0.56,7.05-1.63V36.2
			z M225.93,29.43c0.24-2.75,1.75-4.82,4.74-4.82c2.99,0,4.19,2.23,4.34,4.82H225.93z M208.89,41.7h5.34V25.09h4.66v-3.9h-4.66
			v-2.55c0-1.59,0.56-3.15,2.35-3.15c1.15,0,1.83,0.44,2.3,0.72l0.44-4.42c-1.03-0.24-2.55-0.44-3.9-0.44
			c-4.22,0-6.53,2.87-6.53,6.97v2.87h-3.94v3.9h3.94V41.7z M187.66,30.94c0-3.06,1.67-6.09,5.14-6.09c3.51,0,5.18,2.95,5.18,6.09
			c0,3.43-1.07,7.09-5.18,7.09C188.73,38.03,187.66,34.33,187.66,30.94 M182.08,31.58c0,5.89,3.95,10.59,10.72,10.59
			c6.81,0,10.75-4.7,10.75-10.59c0-6.77-4.65-10.87-10.75-10.87C186.75,20.71,182.08,24.81,182.08,31.58 M159.86,41.7h5.34V31.66
			c0-2.62,0.84-6.81,4.7-6.81c3.43,0,3.46,3.39,3.46,5.9V41.7h5.33V28.75c0-4.62-2.11-8.04-6.97-8.04c-2.79,0-5.1,1.28-6.45,3.27
			h-0.09V11.83h-5.34V41.7z M135.53,41.7h5.34V31.66c0-2.62,0.84-6.81,4.7-6.81c3.42,0,3.46,3.39,3.46,5.9V41.7h5.34V28.75
			c0-4.62-2.11-8.04-6.97-8.04c-2.79,0-5.06,0.92-6.73,3.27h-0.09v-2.79h-5.05V41.7z M130.04,21.19h-5.34v10.04
			c0,2.63-0.83,6.81-4.7,6.81c-3.43,0-3.47-3.39-3.47-5.9V21.19h-5.34v12.94c0,4.62,2.11,8.04,6.97,8.04c2.79,0,5.1-1.28,6.73-3.27
			h0.08v2.79h5.06V21.19z M93.63,35.76c0-3.15,3.54-3.55,5.94-3.55h2.31c0,1.6-0.24,3.07-1.12,4.22c-0.84,1.11-2.11,1.83-3.74,1.83
			C95.11,38.28,93.63,37.52,93.63,35.76 M90.93,26.84c1.79-1.36,4.06-2.23,6.33-2.23c3.14,0,4.62,1.11,4.62,4.42h-2.95
			c-2.23,0-4.86,0.19-6.89,1.19c-2.03,1-3.5,2.79-3.5,5.85c0,3.9,3.54,6.09,7.17,6.09c2.43,0,5.1-1.28,6.33-3.54h0.08
			c0.04,0.63,0.04,1.99,0.24,3.06h4.7c-0.12-1.6-0.2-3.03-0.24-4.58c-0.04-1.51-0.08-3.07-0.08-5.14v-2.63
			c0-6.05-2.59-8.64-8.84-8.64c-2.27,0-5.06,0.6-7.13,1.55L90.93,26.84z M74.88,41.7h5.34v-7.53c0-2.95,0-8.36,4.34-8.36
			c0.96,0,1.91,0.16,2.39,0.44v-5.38c-0.56-0.16-1.11-0.16-1.63-0.16c-3.18,0-5.38,3.23-5.61,5.14h-0.08v-4.66h-4.74V41.7z
			 M55.6,41.7h5.57V29.51h9.4v-4.38h-9.4v-6.85h9.88V13.9H55.6V41.7z"/>
	</g>
	<g>
		<path d="M231.2,54.22h2.68v13.35h-2.68V54.22z"/>
		<path d="M236.75,54.22h7.88v2.1h-5.2v3.29h4.76v2.1h-4.76v3.75h5.24v2.1h-7.92V54.22z"/>
		<path d="M247.38,54.22h7.88v2.1h-5.2v3.29h4.76v2.1h-4.76v3.75h5.24v2.1h-7.92V54.22z"/>
	</g>
</g>
</svg>
