<?xml version="1.0" encoding="UTF-8" standalone="no"?>
<!-- Created with Inkscape (http://www.inkscape.org/) -->

<svg
   xmlns:dc="http://purl.org/dc/elements/1.1/"
   xmlns:cc="http://creativecommons.org/ns#"
   xmlns:rdf="http://www.w3.org/1999/02/22-rdf-syntax-ns#"
   xmlns:svg="http://www.w3.org/2000/svg"
   xmlns="http://www.w3.org/2000/svg"
   xmlns:sodipodi="http://sodipodi.sourceforge.net/DTD/sodipodi-0.dtd"
   xmlns:inkscape="http://www.inkscape.org/namespaces/inkscape"
   version="1.1"
   id="svg2"
   xml:space="preserve"
   width="200"
   height="200"
   viewBox="0 0 200 200"
   sodipodi:docname="pp.svg"
   inkscape:version="0.92.1 r15371"><metadata
     id="metadata8"><rdf:RDF><cc:Work
         rdf:about=""><dc:format>image/svg+xml</dc:format><dc:type
           rdf:resource="http://purl.org/dc/dcmitype/StillImage" /><dc:title></dc:title></cc:Work></rdf:RDF></metadata><defs
     id="defs6"><clipPath
       clipPathUnits="userSpaceOnUse"
       id="clipPath20"><path
         d="M 0,1702.108 H 1086.108 V 0 H 0 Z"
         id="path18"
         inkscape:connector-curvature="0" /></clipPath></defs><sodipodi:namedview
     pagecolor="#ffffff"
     bordercolor="#666666"
     borderopacity="1"
     objecttolerance="10"
     gridtolerance="10"
     guidetolerance="10"
     inkscape:pageopacity="0"
     inkscape:pageshadow="2"
     inkscape:window-width="1858"
     inkscape:window-height="1178"
     id="namedview4"
     showgrid="false"
     fit-margin-top="0"
     fit-margin-left="0"
     fit-margin-right="0"
     fit-margin-bottom="0"
     inkscape:zoom="1.6638173"
     inkscape:cx="36.933446"
     inkscape:cy="175.23363"
     inkscape:window-x="1912"
     inkscape:window-y="-8"
     inkscape:window-maximized="1"
     inkscape:current-layer="g10" /><g
     id="g10"
     inkscape:groupmode="layer"
     inkscape:label="pp_neu"
     transform="matrix(1.3333333,0,0,-1.3333333,-965.89231,278.77595)"><g
       id="g484"
       transform="translate(827.07112,181.33861)"><path
         d="m 0,0 c -18.674,3.977 -37.104,-3.405 -48.159,-17.464 0,0 6.873,2.481 17.976,1.051 -1.44,-0.022 -5.041,-0.688 -13.732,-4.496 l 5.392,-4.966 c 2.539,5.789 5.884,8.012 7.777,8.847 0.804,0.164 1.649,0.303 2.584,0.402 -3.811,-4.574 -5.641,-11.58 -4.486,-13.189 0.453,-0.632 1.197,-0.838 2.143,-0.766 2.064,0.156 5.092,1.645 8.193,3.019 3.3,1.463 8.555,-0.973 7.75,6.199 -0.161,1.415 -0.44,2.705 -0.825,3.838 -0.793,2.326 -2.052,3.975 -3.708,4.676 2.501,-0.058 4.352,-1.938 5.404,-4.974 4.701,-0.837 8.986,-1.82 12.773,-3.186 0.364,-0.146 1.11,-0.446 1.99,-0.808 0.311,-0.125 0.639,-0.263 0.972,-0.404 1.448,-0.612 3.006,-1.301 3.781,-1.763 1.672,-0.995 4.202,-2.778 4.202,-2.778 0,0 6.319,3.64 -0.468,12.537 -0.047,0.06 -0.09,0.109 -0.139,0.165 0.602,-0.383 1.229,-0.962 1.877,-1.813 6.785,-8.899 -0.157,-13.002 -0.157,-13.002 0,0 -0.092,0.085 -0.243,0.224 0.927,-1.084 1.765,-2.273 2.499,-3.593 5.694,-10.195 4.554,-14.069 4.394,-18.61 l -0.002,-0.007 c -0.335,3.627 -0.403,6.776 -1.508,5.476 -1.109,-1.301 -1.112,-3.535 -0.463,-7.019 0.719,0.022 1.454,-1.05 1.667,-2.481 0.178,-1.184 -0.058,-2.231 -0.532,-2.67 0.871,-3.651 1.227,-4.518 2.17,-4.721 0.027,-0.005 0.043,0.008 0.065,0.007 1.015,-3.875 2.196,-6.472 2.196,-6.472 0,0 0.024,-0.036 0.06,-0.106 -0.191,0.113 -0.563,0.053 -1.205,-0.312 -2.283,-1.283 -2.387,-0.691 -4.638,0 -2.25,0.694 -4.73,1.288 -5.051,-0.408 -0.505,-2.649 2.347,-2.622 4.018,-3.611 1.667,-0.997 -1.026,-2.968 -1.026,-2.968 l -3.604,-1.561 c -3.603,-1.57 -8.605,2.886 -8.605,2.886 0,0 0.445,-1.788 3.604,-4.157 3.158,-2.369 9.088,0.822 9.088,0.822 0,0 1.119,-0.834 2.101,-0.448 0.588,0.232 1.771,0.893 1.771,0.893 0,0 -1.642,0.352 -1.967,0.421 -0.326,0.07 1.146,3.149 1.146,3.149 0,0 1.227,0.487 2.9,2.252 0.847,0.896 1.481,1.914 1.609,2.535 0.141,-1.007 -0.161,-3.409 -3.688,-8.357 -7.228,-10.129 -16.179,-5.629 -18.208,-4.03 0,0 2.039,-5.74 1.669,-12.708 17.512,4.272 31.934,18.185 35.939,36.989 C 42.868,-31.294 26.167,-5.571 0,0"
         style="fill:#110f0d;fill-opacity:1;fill-rule:nonzero;stroke:none"
         id="path486"
         inkscape:connector-curvature="0" /></g><g
       id="g488"
       transform="translate(827.82794,123.97531)"><path
         d="M 0,0 C -1.126,0.24 -1.785,1.623 -1.472,3.093 -1.162,4.555 0.006,5.549 1.13,5.307 2.261,5.068 2.921,3.688 2.608,2.221 2.296,0.756 1.129,-0.238 0,0 m 5.025,5.988 c -1.614,5.646 -9.154,5.006 -10.627,0.78 -2.282,-6.514 -1.345,-10.793 0.031,-12.729 2.376,-3.351 5.765,-2.079 7.038,0.409 1.269,2.487 5.178,5.893 3.558,11.54"
         style="fill:#110f0d;fill-opacity:1;fill-rule:nonzero;stroke:none"
         id="path490"
         inkscape:connector-curvature="0" /></g><g
       id="g492"
       transform="translate(791.29574,128.05441)"><path
         d="M 0,0 C 4.648,2.485 18.886,4.968 18.886,4.968 2.59,23.084 -35.076,50.994 -55.918,61.88 c 0,0 28.673,-27.31 41.511,-45.289 -15.904,-3.172 -24.511,-6.393 -24.511,-6.393 15.883,-11.936 34.803,-29.2 49.035,-43.954 10.677,-11.07 26.508,-30.453 26.508,-30.453 -1.779,4.927 -4.549,12.855 -8.47,21.188 1.686,0.041 2.402,0.19 4.723,0.521 0.944,3.856 1.071,10.567 0.994,13.358 l 1.237,1.016 c 0,0 -4.672,-0.155 -9.503,1.67 -0.39,0.147 -1.168,-0.52 -3.491,-0.054 1.077,-2.469 3.082,-9.875 3.602,-11.814 C 19.826,-27.674 7.474,-9.566 0,0"
         style="fill:#110f0d;fill-opacity:1;fill-rule:nonzero;stroke:none"
         id="path494"
         inkscape:connector-curvature="0" /></g></g></svg>