<?xml version="1.0" encoding="UTF-8" standalone="no"?>
<!-- Created with Inkscape (http://www.inkscape.org/) -->

<svg
   xmlns:dc="http://purl.org/dc/elements/1.1/"
   xmlns:cc="http://creativecommons.org/ns#"
   xmlns:rdf="http://www.w3.org/1999/02/22-rdf-syntax-ns#"
   xmlns:svg="http://www.w3.org/2000/svg"
   xmlns="http://www.w3.org/2000/svg"
   xmlns:sodipodi="http://sodipodi.sourceforge.net/DTD/sodipodi-0.dtd"
   xmlns:inkscape="http://www.inkscape.org/namespaces/inkscape"
   width="260"
   height="260"
   viewBox="0 0 68.791665 68.791665"
   version="1.1"
   id="svg4514"
   inkscape:version="0.92.1 r15371"
   sodipodi:docname="pp_icon.svg">
  <defs
     id="defs4508" />
  <sodipodi:namedview
     id="base"
     pagecolor="#ffffff"
     bordercolor="#666666"
     borderopacity="1.0"
     inkscape:pageopacity="0.0"
     inkscape:pageshadow="2"
     inkscape:zoom="1.979899"
     inkscape:cx="75.60744"
     inkscape:cy="95.885487"
     inkscape:document-units="mm"
     inkscape:current-layer="layer1"
     showgrid="false"
     units="px"
     inkscape:window-width="1858"
     inkscape:window-height="1178"
     inkscape:window-x="1912"
     inkscape:window-y="-8"
     inkscape:window-maximized="1" />
  <metadata
     id="metadata4511">
    <rdf:RDF>
      <cc:Work
         rdf:about="">
        <dc:format>image/svg+xml</dc:format>
        <dc:type
           rdf:resource="http://purl.org/dc/dcmitype/StillImage" />
        <dc:title></dc:title>
      </cc:Work>
    </rdf:RDF>
  </metadata>
  <g
     inkscape:label="Ebene 1"
     inkscape:groupmode="layer"
     id="layer1"
     transform="translate(0,-228.20834)">
    <g
       id="g22"
       transform="matrix(0.43150068,0,0,-0.43150068,48.316151,233.70027)">
      <path
         d="m 0,0 c -22.666,4.827 -45.037,-4.133 -58.456,-21.197 0,0 8.343,3.01 21.82,1.276 -1.748,-0.027 -6.118,-0.836 -16.668,-5.458 l 6.544,-6.026 c 3.083,7.026 7.143,9.724 9.441,10.736 0.974,0.199 2.002,0.37 3.136,0.488 -4.626,-5.55 -6.847,-14.054 -5.445,-16.008 0.549,-0.767 1.451,-1.017 2.603,-0.928 2.503,0.189 6.178,1.995 9.943,3.664 4.005,1.775 10.385,-1.184 9.407,7.523 -0.195,1.717 -0.535,3.283 -1.003,4.659 -0.962,2.824 -2.489,4.825 -4.501,5.676 3.037,-0.072 5.283,-2.353 6.561,-6.038 5.705,-1.016 10.907,-2.208 15.504,-3.867 0.442,-0.178 1.347,-0.541 2.415,-0.98 0.378,-0.153 0.775,-0.321 1.179,-0.49 1.758,-0.744 3.648,-1.581 4.589,-2.141 2.03,-1.208 5.101,-3.372 5.101,-3.372 0,0 7.67,4.419 -0.566,15.217 -0.059,0.073 -0.112,0.133 -0.169,0.202 0.731,-0.467 1.49,-1.17 2.276,-2.202 8.237,-10.801 -0.19,-15.781 -0.19,-15.781 0,0 -0.112,0.103 -0.294,0.271 1.124,-1.316 2.141,-2.758 3.032,-4.361 6.911,-12.376 5.527,-17.077 5.334,-22.588 l -0.002,-0.009 c -0.406,4.403 -0.49,8.226 -1.831,6.647 -1.347,-1.579 -1.349,-4.29 -0.562,-8.521 0.872,0.029 1.764,-1.274 2.024,-3.01 0.215,-1.438 -0.072,-2.708 -0.646,-3.24 1.058,-4.431 1.488,-5.485 2.635,-5.731 0.032,-0.006 0.051,0.011 0.077,0.009 1.233,-4.704 2.665,-7.857 2.665,-7.857 0,0 0.031,-0.043 0.073,-0.127 -0.231,0.135 -0.683,0.064 -1.463,-0.379 -2.77,-1.558 -2.898,-0.839 -5.629,0 -2.731,0.842 -5.74,1.563 -6.13,-0.496 -0.614,-3.216 2.848,-3.183 4.877,-4.382 2.024,-1.21 -1.245,-3.603 -1.245,-3.603 L 12.06,-94.32 c -4.373,-1.905 -10.444,3.504 -10.444,3.504 0,0 0.54,-2.17 4.374,-5.044 3.833,-2.876 11.032,0.997 11.032,0.997 0,0 1.357,-1.013 2.55,-0.544 0.714,0.28 2.151,1.083 2.151,1.083 0,0 -1.996,0.426 -2.39,0.511 -0.396,0.085 1.392,3.823 1.392,3.823 0,0 1.49,0.591 3.518,2.732 1.029,1.088 1.801,2.323 1.955,3.078 0.17,-1.223 -0.196,-4.138 -4.475,-10.144 -8.774,-12.292 -19.639,-6.833 -22.102,-4.891 0,0 2.476,-6.968 2.026,-15.426 21.254,5.187 38.761,22.074 43.621,44.898 C 52.032,-37.983 31.762,-6.762 0,0"
         style="fill:#110f0d;fill-opacity:1;fill-rule:nonzero;stroke:none"
         id="path24"
         inkscape:connector-curvature="0" />
    </g>
    <g
       id="g26"
       transform="matrix(0.43150068,0,0,-0.43150068,48.712296,263.74388)">
      <path
         d="M 0,0 C -1.367,0.292 -2.166,1.97 -1.786,3.753 -1.41,5.528 0.007,6.735 1.372,6.441 2.745,6.151 3.546,4.477 3.167,2.696 2.787,0.917 1.37,-0.289 0,0 m 6.101,7.268 c -1.959,6.852 -11.112,6.076 -12.9,0.946 -2.768,-7.906 -1.634,-13.1 0.037,-15.449 2.884,-4.068 6.998,-2.524 8.542,0.495 1.542,3.019 6.283,7.154 4.321,14.008"
         style="fill:#110f0d;fill-opacity:1;fill-rule:nonzero;stroke:none"
         id="path28"
         inkscape:connector-curvature="0" />
    </g>
    <g
       id="g30"
       transform="matrix(0.43150068,0,0,-0.43150068,29.578794,261.60711)">
      <path
         d="m 0,0 c 5.642,3.016 22.923,6.029 22.923,6.029 -19.778,21.989 -65.497,55.867 -90.796,69.078 0,0 34.803,-33.148 50.386,-54.971 -19.303,-3.849 -29.751,-7.76 -29.751,-7.76 19.278,-14.487 42.242,-35.441 59.518,-53.349 12.959,-13.438 32.175,-36.965 32.175,-36.965 -2.16,5.982 -5.52,15.603 -10.28,25.718 2.046,0.05 2.914,0.231 5.732,0.633 1.146,4.681 1.299,12.826 1.205,16.214 l 1.502,1.234 c 0,0 -5.67,-0.188 -11.535,2.025 -0.474,0.179 -1.416,-0.63 -4.236,-0.065 1.308,-2.998 3.741,-11.986 4.371,-14.339 C 24.064,-33.592 9.07,-11.613 0,0"
         style="fill:#110f0d;fill-opacity:1;fill-rule:nonzero;stroke:none"
         id="path32"
         inkscape:connector-curvature="0" />
    </g>
  </g>
</svg>
