<?xml version="1.0" encoding="UTF-8" standalone="no"?>
<svg
   width="260"
   height="260"
   viewBox="0 0 68.791665 68.791665"
   version="1.1"
   id="pandapower-icon"
   xmlns="http://www.w3.org/2000/svg">
  <defs id="defs1" />
  <style id="styles" >
    .filled {
      fill: #110f0d;
      fill-opacity:1;
      fill-rule:nonzero;
      stroke:none;
    }
  </style>
  <g id="pandapower-icon-group">
    <path
       d="m 48.316151,5.49193 c -9.780394,-2.08285 -19.433496,1.78339 -25.223804,9.14652 0,0 3.60001,-1.29882 9.415345,-0.55059 -0.754263,0.0117 -2.639921,0.36073 -7.192253,2.35513 l 2.82374,2.60022 c 1.330317,-3.03172 3.08221,-4.19591 4.073798,-4.63259 0.420282,-0.0859 0.863864,-0.15966 1.353186,-0.21057 -1.996122,2.39482 -2.954485,6.06431 -2.349521,6.90746 0.236894,0.33096 0.626108,0.43883 1.123196,0.40043 1.080047,-0.0816 2.665812,-0.86084 4.290412,-1.58102 1.72816,-0.76591 4.481134,0.5109 4.059126,-3.24618 -0.08414,-0.74088 -0.230852,-1.41661 -0.432795,-2.01036 -0.415103,-1.21856 -1.074005,-2.08199 -1.942184,-2.4492 1.310467,0.0311 2.279618,1.01532 2.831076,2.6054 2.461711,0.43841 4.706378,0.95276 6.689986,1.66862 0.190724,0.0768 0.581232,0.23344 1.042074,0.42287 0.163108,0.066 0.334413,0.13851 0.50874,0.21143 0.758578,0.32104 1.574114,0.68221 1.980156,0.92385 0.875947,0.52125 2.201085,1.45502 2.201085,1.45502 0,0 3.30961,-1.9068 -0.244229,-6.56615 -0.02546,-0.0315 -0.04833,-0.0574 -0.07292,-0.0872 0.315427,0.20151 0.642936,0.50485 0.982096,0.95016 3.554271,4.66064 -0.08198,6.80951 -0.08198,6.80951 0,0 -0.04833,-0.0444 -0.126862,-0.11693 0.485007,0.56785 0.923843,1.19008 1.308311,1.88177 2.982101,5.34025 2.384904,7.36874 2.301624,9.74674 l -8.63e-4,0.004 c -0.175189,-1.89989 -0.211435,-3.54952 -0.790078,-2.86818 -0.581231,0.68134 -0.582094,1.85114 -0.242503,3.67682 0.376269,-0.0125 0.761167,0.54973 0.873357,1.29881 0.09277,0.6205 -0.03107,1.16851 -0.278749,1.39806 0.456528,1.91198 0.642073,2.36679 1.137004,2.47293 0.01381,0.003 0.02201,-0.005 0.03323,-0.004 0.53204,2.02978 1.149949,3.3903 1.149949,3.3903 0,0 0.01338,0.0186 0.0315,0.0548 -0.09968,-0.0582 -0.294715,-0.0276 -0.631286,0.16354 -1.195257,0.67228 -1.250489,0.36203 -2.428917,0 -1.178428,-0.36332 -2.476814,-0.67443 -2.645099,0.21403 -0.264942,1.3877 1.228914,1.37346 2.104429,1.89083 0.873357,0.52212 -0.537219,1.5547 -0.537219,1.5547 l -1.888247,0.81812 c -1.886952,0.82201 -4.506593,-1.51197 -4.506593,-1.51197 0,0 0.23301,0.93635 1.887384,2.17649 1.653942,1.24099 4.760316,-0.43021 4.760316,-0.43021 0,0 0.585546,0.43711 1.100326,0.23474 0.308092,-0.12082 0.928158,-0.46732 0.928158,-0.46732 0,0 -0.861275,-0.18382 -1.031286,-0.2205 -0.170875,-0.0367 0.600649,-1.64962 0.600649,-1.64962 0,0 0.642936,-0.25502 1.518019,-1.17886 0.444014,-0.46948 0.777133,-1.00238 0.843584,-1.32816 0.07335,0.52772 -0.08457,1.78555 -1.930966,4.37714 -3.785987,5.30401 -8.474242,2.94844 -9.537028,2.11047 0,0 1.068396,3.0067 0.874221,6.65633 C 58.197961,52.72137 65.752243,45.43461 67.849337,35.58604 70.768007,21.88158 62.021489,8.4097 48.316164,5.49189"
       id="panda-outline"
       class="filled"
    />
    <path
       d="m 48.712296,35.53554 c -0.589861,-0.126 -0.93463,-0.85006 -0.77066,-1.61942 0.162244,-0.76592 0.773681,-1.28674 1.362679,-1.15988 0.59245,0.12514 0.938082,0.84747 0.774544,1.61597 -0.163971,0.76764 -0.775407,1.28803 -1.366563,1.16333 m 2.632586,-3.13615 c -0.84531,-2.95664 -4.794836,-2.6218 -5.566359,-0.4082 -1.194394,3.41145 -0.705072,5.65266 0.01597,6.66626 1.244448,1.75534 3.019642,1.08911 3.685879,-0.2136 0.665374,-1.3027 2.711119,-3.08695 1.864515,-6.04446"
       id="panda-eyepatch"
       class="filled" />
    <path
       d="m 29.578794,33.39877 c 2.434527,-1.30141 9.89129,-2.60152 9.89129,-2.60152 -8.53422,-9.48827 -28.262,-24.10665 -39.17853565,-29.8072 0,0 15.01751865,14.30338 21.74159365,23.72002 -8.329258,1.66085 -12.8375771,3.34845 -12.8375771,3.34845 8.3184701,6.25115 18.2274521,15.29281 25.6820571,23.02013 5.591818,5.7985 13.883535,15.95042 13.883535,15.95042 -0.932042,-2.58124 -2.381884,-6.73271 -4.435827,-11.09733 0.88285,-0.0216 1.257393,-0.0997 2.473362,-0.27314 0.494499,-2.01986 0.560519,-5.53443 0.519958,-6.99636 l 0.648114,-0.53247 c 0,0 -2.446609,0.0811 -4.97736,-0.87379 -0.204532,-0.0772 -0.611005,0.27185 -1.827837,0.0281 0.564403,1.29364 1.614244,5.17197 1.886089,6.18729 -3.08523,-5.57758 -9.555151,-15.06153 -13.468862,-20.07255"
       id="panda-lightning"
       class="filled" />
  </g>
</svg>
